<?xml version="1.0" encoding="UTF-8"?>
<svg version="1.1" xmlns="http://www.w3.org/2000/svg" width="225" height="198">
<path d="M0 0 C0.6069873 0.3098584 1.21397461 0.6197168 1.83935547 0.93896484 C8.64889017 4.24233499 15.37918654 6.6969632 22.71435547 8.62646484 C23.96684082 8.96387695 23.96684082 8.96387695 25.24462891 9.30810547 C28.06290527 10.06004263 30.88697423 10.78457534 33.71435547 11.50146484 C34.62330566 11.7413916 35.53225586 11.98131836 36.46875 12.22851562 C42.75149735 13.80553029 42.75149735 13.80553029 48.71435547 11.62646484 C52.85695818 9.66417935 56.12091926 9.11608304 60.71435547 9.62646484 C61.70435547 10.94646484 62.69435547 12.26646484 63.71435547 13.62646484 C60.74435547 15.60646484 57.77435547 17.58646484 54.71435547 19.62646484 C63.71888169 31.16351406 75.59535901 38.45114547 88.71435547 44.62646484 C87.83935547 48.50146484 87.83935547 48.50146484 86.71435547 49.62646484 C80.7319965 50.03904132 77.06238723 49.30048072 71.71435547 46.62646484 C71.19486328 47.29033203 70.67537109 47.95419922 70.14013672 48.63818359 C66.51783911 53.22464175 62.90275896 57.55773002 58.71435547 61.62646484 C57.69969294 62.94867425 56.69715153 64.28040033 55.71435547 65.62646484 C57.50292969 65.69994141 57.50292969 65.69994141 59.32763672 65.77490234 C60.89406615 65.84994088 62.46047126 65.92548825 64.02685547 66.00146484 C64.81253906 66.03240234 65.59822266 66.06333984 66.40771484 66.09521484 C67.16503906 66.13388672 67.92236328 66.17255859 68.70263672 66.21240234 C69.74738159 66.25953369 69.74738159 66.25953369 70.81323242 66.30761719 C72.71435547 66.62646484 72.71435547 66.62646484 75.71435547 68.62646484 C75.33935547 70.56396484 75.33935547 70.56396484 74.71435547 72.62646484 C72.14541709 73.91093403 69.9485921 73.95623628 67.08935547 74.18896484 C66.08646484 74.27275391 65.08357422 74.35654297 64.05029297 74.44287109 C63.27943359 74.50345703 62.50857422 74.56404297 61.71435547 74.62646484 C62.62592407 75.10104126 62.62592407 75.10104126 63.5559082 75.58520508 C76.29904393 82.22142976 89.02765218 88.8829286 101.71435547 95.62646484 C101.33935547 97.56396484 101.33935547 97.56396484 100.71435547 99.62646484 C97.03105171 101.46811672 92.85967314 100.92701433 88.96113586 99.90397644 C84.61754871 99.53271764 81.75387624 101.09361151 78.01586914 103.0612793 C77.26867111 103.43830994 76.52147308 103.81534058 75.75163269 104.20379639 C73.28755526 105.45134229 70.83539957 106.72072391 68.38232422 107.98974609 C66.66453669 108.86245999 64.9458789 109.73346285 63.22639465 110.60282898 C58.70041051 112.89525114 54.18349665 115.20494283 49.66912842 117.5201416 C42.45641642 121.21820956 35.23516873 124.89922266 28.00481606 128.56267357 C25.48930105 129.84212412 22.98074388 131.13450317 20.47245789 132.42805481 C18.91557998 133.22038222 17.3584487 134.012212 15.80102539 134.8034668 C15.11345154 135.16252609 14.42587769 135.52158539 13.71746826 135.89152527 C3.40048012 141.08665967 -6.6187848 141.99709121 -17.60043335 138.57415771 C-21.99533643 137.02306246 -26.11478323 135.00721325 -30.27392578 132.91552734 C-31.18015182 132.46551361 -32.08637787 132.01549988 -33.02006531 131.55184937 C-34.91860957 130.60610369 -36.81514355 129.65631245 -38.7097168 128.70263672 C-41.60158111 127.24973827 -44.50258052 125.81638778 -47.40478516 124.38427734 C-49.25757959 123.45835549 -51.10981337 122.5313107 -52.96142578 121.60302734 C-53.82294754 121.17889557 -54.6844693 120.75476379 -55.57209778 120.31777954 C-60.24989148 117.94261316 -63.9878955 115.75774765 -67.28564453 111.62646484 C-67.41064453 108.06396484 -67.41064453 108.06396484 -66.28564453 104.62646484 C-62.55454551 101.08331297 -58.30835766 99.06921193 -53.66064453 97.00146484 C-47.01339264 93.9615273 -40.4982453 90.72913996 -34.03564453 87.31396484 C-33.23819824 86.89356934 -32.44075195 86.47317383 -31.61914062 86.04003906 C-29.5007181 84.91500878 -27.39161505 83.7745913 -25.28564453 82.62646484 C-24.28791016 82.08892578 -23.29017578 81.55138672 -22.26220703 80.99755859 C-21.60994141 80.54509766 -20.95767578 80.09263672 -20.28564453 79.62646484 C-19.78504537 77.04128897 -19.78504537 77.04128897 -20.28564453 74.62646484 C-21.44735822 73.23483584 -21.44735822 73.23483584 -24.65625 73.54467773 C-26.1551573 73.55844622 -27.65402554 73.57694512 -29.15283203 73.59912109 C-30.7765278 73.61176986 -32.40022583 73.62413063 -34.02392578 73.63623047 C-36.59382092 73.66104969 -39.16360005 73.68900327 -41.73339844 73.72241211 C-44.20655059 73.75259569 -46.67955453 73.77038655 -49.15283203 73.78662109 C-50.30608475 73.80681053 -50.30608475 73.80681053 -51.4826355 73.82740784 C-55.30366311 73.8454065 -57.02570535 73.79975763 -60.28564453 71.62646484 C-59.91064453 69.68896484 -59.91064453 69.68896484 -59.28564453 67.62646484 C-56.88022524 66.4237552 -55.18197862 66.42329821 -52.49658203 66.31005859 C-51.55556641 66.26816406 -50.61455078 66.22626953 -49.64501953 66.18310547 C-48.66017578 66.14378906 -47.67533203 66.10447266 -46.66064453 66.06396484 C-45.66806641 66.02078125 -44.67548828 65.97759766 -43.65283203 65.93310547 C-41.19724615 65.82685416 -38.7415575 65.72481521 -36.28564453 65.62646484 C-36.28564453 64.96646484 -36.28564453 64.30646484 -36.28564453 63.62646484 C-36.98923096 63.35318359 -37.69281738 63.07990234 -38.41772461 62.79833984 C-43.70661457 60.63722026 -48.82153569 58.09318664 -53.97314453 55.62646484 C-55.12621094 55.07990234 -56.27927734 54.53333984 -57.46728516 53.97021484 C-58.56621094 53.44427734 -59.66513672 52.91833984 -60.79736328 52.37646484 C-62.30496216 51.65716797 -62.30496216 51.65716797 -63.84301758 50.92333984 C-66.28564453 49.62646484 -66.28564453 49.62646484 -68.28564453 47.62646484 C-68.28564453 46.63646484 -68.28564453 45.64646484 -68.28564453 44.62646484 C-64.4914404 42.77800642 -62.56960601 42.56234451 -58.41064453 43.50146484 C-55.26274443 44.67252666 -52.30352116 46.10923327 -49.32470703 47.64990234 C-48.61942871 48.0135791 -47.91415039 48.37725586 -47.1875 48.75195312 C-45.76960782 49.49291199 -44.35941682 50.24882713 -42.95800781 51.02050781 C-40.10803281 52.52931811 -37.92581972 53.64551768 -34.66064453 53.54833984 C-31.80909176 52.44148712 -29.20271325 51.12578996 -26.53564453 49.62646484 C-25.57142578 49.09021484 -24.60720703 48.55396484 -23.61376953 48.00146484 C-21.40134657 46.82525356 -21.40134657 46.82525356 -20.28564453 45.62646484 C-20.00026131 42.29699391 -19.8367182 38.96748857 -19.66455078 35.63037109 C-19.28564453 32.62646484 -19.28564453 32.62646484 -17.28564453 30.62646484 C-14.81469727 30.33935547 -14.81469727 30.33935547 -11.71923828 30.28271484 C-10.59324219 30.25306641 -9.46724609 30.22341797 -8.30712891 30.19287109 C-7.12441406 30.17095703 -5.94169922 30.14904297 -4.72314453 30.12646484 C6.32286971 29.91700334 15.45687503 29.25873402 25.27685547 24.00146484 C25.90398437 23.67662109 26.53111328 23.35177734 27.17724609 23.01708984 C28.69448106 22.22951749 30.20517243 21.42935881 31.71435547 20.62646484 C27.89060073 16.80271011 18.75703061 15.92070808 13.58935547 14.50146484 C12.60064453 14.22431641 11.61193359 13.94716797 10.59326172 13.66162109 C9.16433594 13.26910156 9.16433594 13.26910156 7.70654297 12.86865234 C6.84399902 12.63001465 5.98145508 12.39137695 5.09277344 12.14550781 C2.46875066 11.48432329 2.46875066 11.48432329 -1.28564453 11.62646484 C-2.9224071 13.58649294 -2.9224071 13.58649294 -4.28564453 15.62646484 C-4.94564453 15.62646484 -5.60564453 15.62646484 -6.28564453 15.62646484 C-6.54345703 16.19880859 -6.80126953 16.77115234 -7.06689453 17.36083984 C-8.39930395 19.83775479 -9.93620571 21.76058145 -11.78564453 23.87646484 C-12.69830078 24.93607422 -12.69830078 24.93607422 -13.62939453 26.01708984 C-15.28564453 27.62646484 -15.28564453 27.62646484 -17.28564453 27.62646484 C-17.54990234 28.21041016 -17.81416016 28.79435547 -18.08642578 29.39599609 C-19.335125 31.71849529 -20.66177371 33.4031137 -22.47314453 35.31396484 C-23.02357422 35.91595703 -23.57400391 36.51794922 -24.14111328 37.13818359 C-29.20256409 40.65077514 -35.0889225 39.64929338 -40.84814453 38.62646484 C-50.09646416 36.84464866 -60.70305357 33.62946566 -66.72314453 25.93896484 C-68.28564453 22.62646484 -68.28564453 22.62646484 -68.09887695 20.52099609 C-67.28564453 18.62646484 -67.28564453 18.62646484 -63.83642578 17.00146484 C-59.13156463 15.45098733 -54.33917689 14.51419638 -49.47314453 13.62646484 C-43.23211215 12.43729133 -37.12355996 11.12770055 -31.02001953 9.34912109 C-26.19203501 8.07315376 -21.28069758 7.20116522 -16.37548828 6.27490234 C-13.39155207 5.78524185 -13.39155207 5.78524185 -11.28564453 4.62646484 C-12.93564453 3.63646484 -14.58564453 2.64646484 -16.28564453 1.62646484 C-15.97314453 -0.31103516 -15.97314453 -0.31103516 -15.28564453 -2.37353516 C-9.76962327 -4.21220891 -5.06730203 -2.52321301 0 0 Z M-39.53564453 18.50146484 C-40.73189453 18.77087891 -41.92814453 19.04029297 -43.16064453 19.31787109 C-44.30017578 19.58212891 -45.43970703 19.84638672 -46.61376953 20.11865234 C-47.65436523 20.3595459 -48.69496094 20.60043945 -49.76708984 20.84863281 C-52.42540982 21.45492303 -52.42540982 21.45492303 -54.28564453 23.62646484 C-49.14321141 27.95619736 -44.04209693 31.49615608 -37.28564453 32.62646484 C-34.04613575 32.12472959 -32.50141904 31.19407572 -30.30517578 28.79052734 C-29.78117187 28.22076172 -29.25716797 27.65099609 -28.71728516 27.06396484 C-28.18296875 26.46583984 -27.64865234 25.86771484 -27.09814453 25.25146484 C-26.55222656 24.66107422 -26.00630859 24.07068359 -25.44384766 23.46240234 C-22.23273859 19.94737689 -22.23273859 19.94737689 -20.28564453 15.62646484 C-26.99526361 15.42705747 -33.03908105 16.97661643 -39.53564453 18.50146484 Z M38.65185547 26.12646484 C37.55164063 26.82255859 37.55164063 26.82255859 36.42919922 27.53271484 C35.86330078 27.89365234 35.29740234 28.25458984 34.71435547 28.62646484 C35.35888672 29.14724609 36.00341797 29.66802734 36.66748047 30.20458984 C39.31421222 33.33621902 39.30226471 35.3241958 39.46435547 39.37646484 C39.52107422 40.54693359 39.57779297 41.71740234 39.63623047 42.92333984 C39.67490234 44.26138672 39.67490234 44.26138672 39.71435547 45.62646484 C46.93096334 45.22859103 54.00864097 44.51019803 60.71435547 41.62646484 C61.04435547 40.96646484 61.37435547 40.30646484 61.71435547 39.62646484 C61.08529297 39.14177734 60.45623047 38.65708984 59.80810547 38.15771484 C54.60031355 34.07932358 49.78201418 29.87834117 45.21044922 25.09521484 C42.59489687 22.52746633 41.487814 24.32585625 38.65185547 26.12646484 Z M8.96435547 40.37646484 C8.26052734 40.72451172 7.55669922 41.07255859 6.83154297 41.43115234 C-0.17899211 44.85622981 -0.17899211 44.85622981 -6.28564453 49.62646484 C-6.38545667 52.30377864 -6.42444329 54.94950659 -6.41064453 57.62646484 C-6.41451172 58.37669922 -6.41837891 59.12693359 -6.42236328 59.89990234 C-6.76239994 63.56252601 -6.76239994 63.56252601 -5.28564453 66.62646484 C-3.26600254 66.69890537 -1.2439733 66.71023673 0.77685547 66.68896484 C1.88158203 66.67994141 2.98630859 66.67091797 4.12451172 66.66162109 C4.97916016 66.65001953 5.83380859 66.63841797 6.71435547 66.62646484 C8.10752424 62.44695854 6.48947724 60.53173274 4.71435547 56.62646484 C4.71435547 55.96646484 4.71435547 55.30646484 4.71435547 54.62646484 C5.27421143 54.5157666 5.83406738 54.40506836 6.41088867 54.29101562 C8.95097724 53.78473643 11.48887886 53.26822254 14.02685547 52.75146484 C14.90792969 52.57744141 15.78900391 52.40341797 16.69677734 52.22412109 C17.54433594 52.05009766 18.39189453 51.87607422 19.26513672 51.69677734 C20.43556519 51.46112061 20.43556519 51.46112061 21.62963867 51.22070312 C23.99164792 50.66214462 23.99164792 50.66214462 26.71435547 48.62646484 C27.07896 45.95992579 27.07896 45.95992579 26.90185547 43.00146484 C26.87478516 41.99857422 26.84771484 40.99568359 26.81982422 39.96240234 C26.76761719 38.80611328 26.76761719 38.80611328 26.71435547 37.62646484 C25.43560547 37.46146484 24.15685547 37.29646484 22.83935547 37.12646484 C22.12005859 37.03365234 21.40076172 36.94083984 20.65966797 36.84521484 C16.08313291 36.3305844 12.95746826 38.3584401 8.96435547 40.37646484 Z M39.71435547 54.62646484 C39.64287348 55.97890402 39.63036092 57.33480851 39.65185547 58.68896484 C39.67248047 59.98833984 39.69310547 61.28771484 39.71435547 62.62646484 C41.03435547 62.62646484 42.35435547 62.62646484 43.71435547 62.62646484 C43.71435547 61.96646484 43.71435547 61.30646484 43.71435547 60.62646484 C44.70435547 60.29646484 45.69435547 59.96646484 46.71435547 59.62646484 C50.35448614 56.14711012 50.35448614 56.14711012 51.71435547 51.62646484 C47.41520665 51.42650443 42.96674567 51.37407464 39.71435547 54.62646484 Z M-26.28564453 59.62646484 C-23.33186955 61.99626497 -23.33186955 61.99626497 -19.28564453 61.62646484 C-19.28564453 59.97646484 -19.28564453 58.32646484 -19.28564453 56.62646484 C-22.80280756 56.62646484 -23.65686201 57.45092069 -26.28564453 59.62646484 Z M-6.28564453 83.62646484 C-6.38507259 85.74954637 -6.41533637 87.87606156 -6.41064453 90.00146484 C-6.41322266 91.16419922 -6.41580078 92.32693359 -6.41845703 93.52490234 C-6.42671296 96.66217908 -6.42671296 96.66217908 -5.28564453 99.62646484 C-2.0588961 100.92556964 1.28387087 100.75560339 4.72216797 100.75927734 C6.44886719 100.76121094 6.44886719 100.76121094 8.21044922 100.76318359 C9.40798828 100.75931641 10.60552734 100.75544922 11.83935547 100.75146484 C13.04462891 100.75533203 14.24990234 100.75919922 15.49169922 100.76318359 C16.64025391 100.76189453 17.78880859 100.76060547 18.97216797 100.75927734 C20.55215576 100.75758545 20.55215576 100.75758545 22.1640625 100.75585938 C24.70589046 100.79791265 24.70589046 100.79791265 26.71435547 99.62646484 C26.71435547 91.37646484 26.71435547 83.12646484 26.71435547 74.62646484 C16.24228735 70.4376376 1.75521645 75.58560386 -6.28564453 83.62646484 Z M40.71435547 75.62646484 C38.882159 77.45866131 39.47534219 80.38360225 39.39794922 82.84912109 C39.35605469 84.10917969 39.31416016 85.36923828 39.27099609 86.66748047 C39.23117951 88.0079722 39.19146733 89.34846704 39.15185547 90.68896484 C39.10867504 92.03338007 39.06506091 93.37778144 39.02099609 94.72216797 C38.91450189 98.02348825 38.81249086 101.3248872 38.71435547 104.62646484 C35.40712269 106.08440969 32.67859732 106.89323048 29.06982422 107.04052734 C27.8081543 107.09853516 27.8081543 107.09853516 26.52099609 107.15771484 C25.22452148 107.20412109 25.22452148 107.20412109 23.90185547 107.25146484 C22.57637695 107.30947266 22.57637695 107.30947266 21.22412109 107.36865234 C19.05452575 107.46247268 16.88447 107.5455381 14.71435547 107.62646484 C17.75327419 110.12062133 20.76404152 112.44009422 24.15185547 114.43896484 C24.87244141 114.87853516 25.59302734 115.31810547 26.33544922 115.77099609 C30.13880713 117.13870608 33.18785367 116.26887457 36.87174988 114.71855164 C39.43300749 113.4984945 41.96215712 112.22724471 44.48779297 110.93505859 C45.87340927 110.2380056 45.87340927 110.2380056 47.28701782 109.52687073 C50.22498386 108.04672832 53.15717714 106.55553449 56.08935547 105.06396484 C58.08507813 104.05606825 60.08116799 103.04889842 62.07763672 102.04248047 C66.96082916 99.57888019 71.83933442 97.10619204 76.71435547 94.62646484 C75.49771844 90.97655375 74.11031078 90.52714521 70.79910278 88.84712219 C70.11371429 88.51262558 69.42832581 88.17812897 68.72216797 87.83349609 C68.0204245 87.48260422 67.31868103 87.13171234 66.59567261 86.77018738 C65.11009845 86.03008203 63.62207379 85.29487829 62.13183594 84.56420898 C59.84973412 83.44405911 57.57661293 82.30713411 55.30419922 81.16748047 C53.86069093 80.45097319 52.41669601 79.73544526 50.97216797 79.02099609 C50.29082794 78.68042679 49.60948792 78.33985748 48.90750122 77.9889679 C45.98585182 76.56462168 44.00889551 75.62646484 40.71435547 75.62646484 Z M-36.88330078 97.74365234 C-37.76695313 98.18580078 -38.65060547 98.62794922 -39.56103516 99.08349609 C-40.48078125 99.55142578 -41.40052734 100.01935547 -42.34814453 100.50146484 C-43.73356445 101.19175781 -43.73356445 101.19175781 -45.14697266 101.89599609 C-50.06163076 104.26694271 -50.06163076 104.26694271 -54.28564453 107.62646484 C-54.26968357 109.66253991 -54.26968357 109.66253991 -53.28564453 111.62646484 C-51.53224349 113.03697045 -51.53224349 113.03697045 -49.26000977 114.10009766 C-48.40499374 114.54025208 -47.54997772 114.98040649 -46.66905212 115.43389893 C-45.73686356 115.89447693 -44.80467499 116.35505493 -43.84423828 116.82958984 C-42.88800064 117.31224304 -41.931763 117.79489624 -40.94654846 118.29217529 C-38.91812697 119.31096351 -36.88609889 120.32259739 -34.85083008 121.32763672 C-31.7491502 122.86358685 -28.66470943 124.43065602 -25.58056641 126.00146484 C-23.60692117 126.98777149 -21.63233983 127.97220761 -19.65673828 128.95458984 C-18.27970985 129.65760223 -18.27970985 129.65760223 -16.87486267 130.37481689 C-11.3483327 133.06880314 -7.44053977 134.36208058 -1.28564453 133.62646484 C1.65904883 132.69265502 1.65904883 132.69265502 4.30810547 131.22021484 C5.27490234 130.72392578 6.24169922 130.22763672 7.23779297 129.71630859 C8.71119141 128.92933594 8.71119141 128.92933594 10.21435547 128.12646484 C11.73416016 127.33949219 11.73416016 127.33949219 13.28466797 126.53662109 C15.76915097 125.24750256 18.24487565 123.94403044 20.71435547 122.62646484 C16.36585837 117.89950846 11.3236319 115.71617293 5.58935547 113.00146484 C4.59419922 112.51162109 3.59904297 112.02177734 2.57373047 111.51708984 C-3.00785769 108.85016913 -8.07159096 106.96852756 -14.22265625 106.16796875 C-16.71590653 105.51352743 -17.63536918 104.56878161 -19.28564453 102.62646484 C-22.30149097 99.29863429 -25.14060907 97.39030972 -29.28564453 95.62646484 C-32.59173297 95.62646484 -33.96477436 96.27901512 -36.88330078 97.74365234 Z " fill="#A058F1" transform="translate(102.28564453125,29.37353515625)"/>
<path d="M0 0 C1.68664786 -0.0823499 3.37451707 -0.1397912 5.0625 -0.1875 C6.47208984 -0.23970703 6.47208984 -0.23970703 7.91015625 -0.29296875 C14.77324547 0.35776664 21.00164278 4.49001086 27 7.6875 C27.82508057 8.12449219 28.65016113 8.56148437 29.50024414 9.01171875 C32.0019289 10.33785502 34.50137924 11.6681009 37 13 C37.7513623 13.40041504 38.50272461 13.80083008 39.27685547 14.21337891 C44.72365852 17.11743623 44.72365852 17.11743623 47.27929688 18.48706055 C50.16665616 20.0329803 53.06043257 21.55549512 56 23 C55.625 24.9375 55.625 24.9375 55 27 C51.31669624 28.84165188 47.14531768 28.30054949 43.2467804 27.2775116 C38.90319324 26.90625279 36.03952077 28.46714666 32.30151367 30.43481445 C31.55431564 30.81184509 30.80711761 31.18887573 30.03727722 31.57733154 C27.57319979 32.82487745 25.1210441 34.09425907 22.66796875 35.36328125 C20.95018122 36.23599514 19.23152343 37.106998 17.51203918 37.97636414 C12.98605505 40.2687863 8.46914118 42.57847799 3.95477295 44.89367676 C-3.25793905 48.59174472 -10.47918674 52.27275782 -17.70953941 55.93620872 C-20.22505442 57.21565928 -22.73361158 58.50803832 -25.24189758 59.80158997 C-26.79877548 60.59391737 -28.35590677 61.38574716 -29.91333008 62.17700195 C-30.60090393 62.53606125 -31.28847778 62.89512054 -31.99688721 63.26506042 C-42.31387535 68.46019483 -52.33314027 69.37062637 -63.31478882 65.94769287 C-67.7096919 64.39659762 -71.8291387 62.3807484 -75.98828125 60.2890625 C-76.89450729 59.83904877 -77.80073334 59.38903503 -78.73442078 58.92538452 C-80.63296504 57.97963885 -82.52949902 57.02984761 -84.42407227 56.07617188 C-87.31593658 54.62327343 -90.21693599 53.18992294 -93.11914062 51.7578125 C-94.97193506 50.83189064 -96.82416884 49.90484585 -98.67578125 48.9765625 C-99.96806389 48.34036484 -99.96806389 48.34036484 -101.28645325 47.6913147 C-105.96424695 45.31614831 -109.70225097 43.13128281 -113 39 C-113.125 35.4375 -113.125 35.4375 -112 32 C-108.26895683 28.45690117 -104.02276478 26.44253021 -99.375 24.375 C-90.39829361 20.27382104 -81.70684992 15.70101679 -73.00244141 11.05615234 C-70.35636806 9.6605277 -67.68330211 8.3223929 -65 7 C-64 8 -64 8 -63.88647461 10.13305664 C-63.89171143 11.04949951 -63.89694824 11.96594238 -63.90234375 12.91015625 C-63.90556641 13.89951172 -63.90878906 14.88886719 -63.91210938 15.90820312 C-63.92467773 17.46958008 -63.92467773 17.46958008 -63.9375 19.0625 C-63.94201172 20.10728516 -63.94652344 21.15207031 -63.95117188 22.22851562 C-63.96300087 24.8190666 -63.97948311 27.40950559 -64 30 C-64.66 30 -65.32 30 -66 30 C-66.4125 29.566875 -66.825 29.13375 -67.25 28.6875 C-69.62831863 26.39412132 -71.93807892 25.22476843 -75 24 C-78.63837356 24.42215623 -81.43639738 25.5610571 -84.64453125 27.28515625 C-85.48564453 27.73310547 -86.32675781 28.18105469 -87.19335938 28.64257812 C-88.05767578 29.11115234 -88.92199219 29.57972656 -89.8125 30.0625 C-90.69615234 30.53494141 -91.57980469 31.00738281 -92.49023438 31.49414062 C-94.66331578 32.65703284 -96.83302284 33.82578375 -99 35 C-99 35.99 -99 36.98 -99 38 C-92.8916859 41.15586235 -86.77078485 44.2862016 -80.640625 47.39941406 C-78.55823675 48.46068096 -76.47876083 49.52768316 -74.40234375 50.60058594 C-71.41118956 52.14486956 -68.41004885 53.66798868 -65.40625 55.1875 C-64.02451599 55.90933472 -64.02451599 55.90933472 -62.61486816 56.64575195 C-57.07529736 59.41743855 -53.20233411 60.73900151 -47 60 C-44.25179417 59.16252383 -44.25179417 59.16252383 -41.84375 57.8125 C-40.9671875 57.36132812 -40.090625 56.91015625 -39.1875 56.4453125 C-37.8571875 55.72988281 -37.8571875 55.72988281 -36.5 55 C-35.5821875 54.52304688 -34.664375 54.04609375 -33.71875 53.5546875 C-31.47115476 52.38406498 -29.23246488 51.19915256 -27 50 C-27 49.34 -27 48.68 -27 48 C-35.25 44.04 -43.5 40.08 -52 36 C-52 35.34 -52 34.68 -52 34 C-40.44830348 32.98294846 -32.03894324 33.18644233 -22.25390625 39.88647461 C-18.62529197 42.3803487 -18.62529197 42.3803487 -14.36547852 42.89648438 C-9.82173594 41.68613815 -5.90122619 39.67771888 -1.734375 37.52734375 C-0.85976624 37.0848378 0.01484253 36.64233185 0.91595459 36.18641663 C3.69789616 34.77768936 6.47422766 33.35833944 9.25 31.9375 C12.04074354 30.514528 14.83261917 29.09390105 17.62689209 27.6778717 C19.36304706 26.79751588 21.09704577 25.91289247 22.82867432 25.02366638 C23.60998718 24.62647903 24.39130005 24.22929169 25.19628906 23.82006836 C26.22837494 23.29164589 26.22837494 23.29164589 27.28131104 22.75254822 C29 22 29 22 31 22 C28.31026912 18.79548809 24.83146223 17.22469759 21.14453125 15.42578125 C20.48289474 15.09708542 19.82125824 14.76838959 19.13957214 14.42973328 C17.03330579 13.38497181 14.92301418 12.34864926 12.8125 11.3125 C11.3805855 10.60406892 9.94894157 9.89509068 8.51757812 9.18554688 C5.01482247 7.45067499 1.50843391 5.72335793 -2 4 C-1.34 2.68 -0.68 1.36 0 0 Z " fill="#E69049" transform="translate(148,102)"/>
<path d="M0 0 C0.6069873 0.3098584 1.21397461 0.6197168 1.83935547 0.93896484 C8.64889017 4.24233499 15.37918654 6.6969632 22.71435547 8.62646484 C23.96684082 8.96387695 23.96684082 8.96387695 25.24462891 9.30810547 C28.06290527 10.06004263 30.88697423 10.78457534 33.71435547 11.50146484 C34.62330566 11.7413916 35.53225586 11.98131836 36.46875 12.22851562 C42.74586677 13.78801955 42.74586677 13.78801955 48.71435547 11.62646484 C49.70435547 11.29646484 50.69435547 10.96646484 51.71435547 10.62646484 C51.71435547 11.28646484 51.71435547 11.94646484 51.71435547 12.62646484 C55.17935547 12.13146484 55.17935547 12.13146484 58.71435547 11.62646484 C58.38435547 12.94646484 58.05435547 14.26646484 57.71435547 15.62646484 C56.39435547 15.62646484 55.07435547 15.62646484 53.71435547 15.62646484 C53.28877913 19.06808216 53.50592387 20.33894285 55.57763672 23.19677734 C56.38587891 24.03982422 57.19412109 24.88287109 58.02685547 25.75146484 C59.22761719 27.02376953 59.22761719 27.02376953 60.45263672 28.32177734 C61.76047323 29.65446049 63.07387448 30.98182276 64.40185547 32.29443359 C66.02792852 33.94470416 67.35718733 35.75228027 68.71435547 37.62646484 C67.02685547 38.75146484 67.02685547 38.75146484 64.71435547 39.62646484 C62.02685547 39.00146484 62.02685547 39.00146484 59.71435547 37.62646484 C58.90185547 35.50146484 58.90185547 35.50146484 58.71435547 33.62646484 C57.99892578 33.89330078 57.28349609 34.16013672 56.54638672 34.43505859 C53.71435547 34.62646484 53.71435547 34.62646484 51.03857422 32.53662109 C50.16845703 31.59689453 49.29833984 30.65716797 48.40185547 29.68896484 C47.07734375 28.28324219 47.07734375 28.28324219 45.72607422 26.84912109 C44.73027344 25.74890625 44.73027344 25.74890625 43.71435547 24.62646484 C43.11107422 24.96419922 42.50779297 25.30193359 41.88623047 25.64990234 C39.11542948 26.8957661 37.58450648 26.42372901 34.71435547 25.62646484 C34.71435547 26.28646484 34.71435547 26.94646484 34.71435547 27.62646484 C33.32216797 27.50271484 33.32216797 27.50271484 31.90185547 27.37646484 C28.65109204 27.25610654 28.65109204 27.25610654 27.08935547 29.50146484 C26.63560547 30.20271484 26.18185547 30.90396484 25.71435547 31.62646484 C22.83901871 33.78296741 21.65040983 33.62007028 17.96435547 33.25146484 C16.89185547 33.04521484 15.81935547 32.83896484 14.71435547 32.62646484 C15.04435547 31.63646484 15.37435547 30.64646484 15.71435547 29.62646484 C18.35435547 29.29646484 20.99435547 28.96646484 23.71435547 28.62646484 C23.71435547 27.30646484 23.71435547 25.98646484 23.71435547 24.62646484 C26.35435547 23.30646484 28.99435547 21.98646484 31.71435547 20.62646484 C27.89060073 16.80271011 18.75703061 15.92070808 13.58935547 14.50146484 C12.60064453 14.22431641 11.61193359 13.94716797 10.59326172 13.66162109 C9.16433594 13.26910156 9.16433594 13.26910156 7.70654297 12.86865234 C6.84399902 12.63001465 5.98145508 12.39137695 5.09277344 12.14550781 C2.46875066 11.48432329 2.46875066 11.48432329 -1.28564453 11.62646484 C-2.9224071 13.58649294 -2.9224071 13.58649294 -4.28564453 15.62646484 C-4.94564453 15.62646484 -5.60564453 15.62646484 -6.28564453 15.62646484 C-6.54345703 16.19880859 -6.80126953 16.77115234 -7.06689453 17.36083984 C-8.39930395 19.83775479 -9.93620571 21.76058145 -11.78564453 23.87646484 C-12.69830078 24.93607422 -12.69830078 24.93607422 -13.62939453 26.01708984 C-15.28564453 27.62646484 -15.28564453 27.62646484 -17.28564453 27.62646484 C-17.54990234 28.21041016 -17.81416016 28.79435547 -18.08642578 29.39599609 C-19.335125 31.71849529 -20.66177371 33.4031137 -22.47314453 35.31396484 C-23.02357422 35.91595703 -23.57400391 36.51794922 -24.14111328 37.13818359 C-29.20256409 40.65077514 -35.0889225 39.64929338 -40.84814453 38.62646484 C-50.09646416 36.84464866 -60.70305357 33.62946566 -66.72314453 25.93896484 C-68.28564453 22.62646484 -68.28564453 22.62646484 -68.09887695 20.52099609 C-67.28564453 18.62646484 -67.28564453 18.62646484 -63.83642578 17.00146484 C-59.13156463 15.45098733 -54.33917689 14.51419638 -49.47314453 13.62646484 C-43.23211215 12.43729133 -37.12355996 11.12770055 -31.02001953 9.34912109 C-26.19203501 8.07315376 -21.28069758 7.20116522 -16.37548828 6.27490234 C-13.39155207 5.78524185 -13.39155207 5.78524185 -11.28564453 4.62646484 C-12.93564453 3.63646484 -14.58564453 2.64646484 -16.28564453 1.62646484 C-15.97314453 -0.31103516 -15.97314453 -0.31103516 -15.28564453 -2.37353516 C-9.76962327 -4.21220891 -5.06730203 -2.52321301 0 0 Z M-39.53564453 18.50146484 C-40.73189453 18.77087891 -41.92814453 19.04029297 -43.16064453 19.31787109 C-44.30017578 19.58212891 -45.43970703 19.84638672 -46.61376953 20.11865234 C-47.65436523 20.3595459 -48.69496094 20.60043945 -49.76708984 20.84863281 C-52.42540982 21.45492303 -52.42540982 21.45492303 -54.28564453 23.62646484 C-49.14321141 27.95619736 -44.04209693 31.49615608 -37.28564453 32.62646484 C-34.04613575 32.12472959 -32.50141904 31.19407572 -30.30517578 28.79052734 C-29.78117187 28.22076172 -29.25716797 27.65099609 -28.71728516 27.06396484 C-28.18296875 26.46583984 -27.64865234 25.86771484 -27.09814453 25.25146484 C-26.55222656 24.66107422 -26.00630859 24.07068359 -25.44384766 23.46240234 C-22.23273859 19.94737689 -22.23273859 19.94737689 -20.28564453 15.62646484 C-26.99526361 15.42705747 -33.03908105 16.97661643 -39.53564453 18.50146484 Z " fill="#A655F4" transform="translate(102.28564453125,29.37353515625)"/>
<path d="M0 0 C2.71982123 0.92964665 5.27715143 1.97809039 7.88671875 3.17578125 C9.88074097 3.86012024 11.87957567 4.53093933 13.88671875 5.17578125 C13.88671875 5.83578125 13.88671875 6.49578125 13.88671875 7.17578125 C16.19671875 7.17578125 18.50671875 7.17578125 20.88671875 7.17578125 C21.87671875 19.55078125 21.87671875 19.55078125 22.88671875 32.17578125 C33.44671875 32.17578125 44.00671875 32.17578125 54.88671875 32.17578125 C54.88671875 23.59578125 54.88671875 15.01578125 54.88671875 6.17578125 C64.9453125 6.76171875 64.9453125 6.76171875 67.88671875 7.17578125 C70.15926463 11.720873 68.75287525 18.20276734 68.57421875 23.17578125 C68.52104492 25.1403125 68.52104492 25.1403125 68.46679688 27.14453125 C68.40202148 29.01625 68.40202148 29.01625 68.3359375 30.92578125 C68.29815186 32.075625 68.26036621 33.22546875 68.22143555 34.41015625 C67.88671875 37.17578125 67.88671875 37.17578125 65.88671875 39.17578125 C59.78440092 40.54197257 53.25586756 40.34790895 47.03125 40.37890625 C45.67334602 40.38745636 45.67334602 40.38745636 44.28800964 40.3961792 C42.38969061 40.40555801 40.49135581 40.41213453 38.59301758 40.41601562 C35.69649266 40.42579045 32.80065798 40.45690829 29.90429688 40.48828125 C28.05078542 40.49480639 26.19726895 40.50005878 24.34375 40.50390625 C23.05450371 40.52242645 23.05450371 40.52242645 21.73921204 40.5413208 C16.68373331 40.52262156 13.31501251 39.89549952 8.88671875 37.17578125 C8.89719238 36.48540771 8.90766602 35.79503418 8.91845703 35.08374023 C8.96027572 31.92695826 8.98612677 28.7702348 9.01171875 25.61328125 C9.02847656 24.52724609 9.04523438 23.44121094 9.0625 22.32226562 C9.06894531 21.26201172 9.07539062 20.20175781 9.08203125 19.109375 C9.09250488 18.14056396 9.10297852 17.17175293 9.11376953 16.17358398 C8.8424465 12.59124475 7.96697813 9.59784859 6.88671875 6.17578125 C5.81188232 6.18625488 4.7370459 6.19672852 3.62963867 6.20751953 C-0.3566556 6.24370904 -4.34293533 6.26667788 -8.3293457 6.28564453 C-10.05495648 6.29570451 -11.7805502 6.30935401 -13.50610352 6.32666016 C-15.98588265 6.35090879 -18.46543648 6.36226426 -20.9453125 6.37109375 C-21.7172847 6.38141632 -22.4892569 6.39173889 -23.28462219 6.40237427 C-27.10609601 6.40317547 -28.85464232 6.3482072 -32.11328125 4.17578125 C-31.73828125 2.23828125 -31.73828125 2.23828125 -31.11328125 0.17578125 C-23.61850344 -3.57160765 -8.02413232 -1.98546109 0 0 Z " fill="#3DB3E9" transform="translate(74.11328125,96.82421875)"/>
<path d="M0 0 C0.99 1.32 1.98 2.64 3 4 C0.03 5.98 -2.94 7.96 -6 10 C3.00452622 21.53704922 14.88100354 28.82468062 28 35 C27.125 38.875 27.125 38.875 26 40 C20.01764103 40.41257648 16.34803176 39.67401588 11 37 C10.48050781 37.66386719 9.96101563 38.32773438 9.42578125 39.01171875 C5.80348364 43.5981769 2.1884035 47.93126518 -2 52 C-3.01466253 53.32220941 -4.01720394 54.65393548 -5 56 C-3.80761719 56.04898438 -2.61523438 56.09796875 -1.38671875 56.1484375 C0.17971068 56.22347604 1.74611579 56.2990234 3.3125 56.375 C4.49102539 56.42140625 4.49102539 56.42140625 5.69335938 56.46875 C6.8293457 56.52675781 6.8293457 56.52675781 7.98828125 56.5859375 C8.68477783 56.6173584 9.38127441 56.6487793 10.09887695 56.68115234 C12 57 12 57 15 59 C14.625 60.9375 14.625 60.9375 14 63 C11.24130517 64.37934742 9.05136418 64.07733088 5.96875 64.02734375 C4.76605469 64.01509766 3.56335938 64.00285156 2.32421875 63.99023438 C-0.22531726 63.95507734 -2.77480241 63.91601457 -5.32421875 63.87304688 C-6.52691406 63.86208984 -7.72960937 63.85113281 -8.96875 63.83984375 C-10.07669922 63.82300537 -11.18464844 63.80616699 -12.32617188 63.78881836 C-15.15384608 63.72102144 -15.15384608 63.72102144 -17 66 C-18.83178711 66.15112305 -18.83178711 66.15112305 -21.02734375 66.01171875 C-21.81947266 65.96466797 -22.61160156 65.91761719 -23.42773438 65.86914062 C-24.25595703 65.80919922 -25.08417969 65.74925781 -25.9375 65.6875 C-27.1740332 65.61499023 -27.1740332 65.61499023 -28.43554688 65.54101562 C-31.86737413 65.32077651 -34.71657717 65.09447428 -38 64 C-38.495 62.515 -38.495 62.515 -39 61 C-35.37 61.33 -31.74 61.66 -28 62 C-28.495 60.515 -28.495 60.515 -29 59 C-30.32 58.34 -31.64 57.68 -33 57 C-33 53.04 -33 49.08 -33 45 C-27.06 44.505 -27.06 44.505 -21 44 C-20.67 46.97 -20.34 49.94 -20 53 C-17.84753433 53.23486397 -17.84753433 53.23486397 -16.34375 51.35546875 C-15.43109375 50.28232422 -15.43109375 50.28232422 -14.5 49.1875 C-13.58734375 48.12595703 -13.58734375 48.12595703 -12.65625 47.04296875 C-10.86470856 44.89791928 -10.86470856 44.89791928 -9 42 C-9.54140625 42.17402344 -10.0828125 42.34804687 -10.640625 42.52734375 C-13.48751809 43.09766505 -15.86718522 42.87137301 -18.75 42.5625 C-19.73484375 42.46066406 -20.7196875 42.35882813 -21.734375 42.25390625 C-22.48203125 42.17011719 -23.2296875 42.08632812 -24 42 C-24 41.34 -24 40.68 -24 40 C-23.28972656 39.87882812 -22.57945312 39.75765625 -21.84765625 39.6328125 C-20.46900391 39.38144531 -20.46900391 39.38144531 -19.0625 39.125 C-17.68771484 38.88136719 -17.68771484 38.88136719 -16.28515625 38.6328125 C-15.53105469 38.42398438 -14.77695313 38.21515625 -14 38 C-13.67 37.34 -13.34 36.68 -13 36 C-10.67843403 35.59270772 -8.3431213 35.25561323 -6 35 C-6 34.34 -6 33.68 -6 33 C-4.02 32.34 -2.04 31.68 0 31 C-0.99 30.21625 -1.98 29.4325 -3 28.625 C-3.99 27.75875 -4.98 26.8925 -6 26 C-6 25.34 -6 24.68 -6 24 C-4.68 24 -3.36 24 -2 24 C-1.773125 24.639375 -1.54625 25.27875 -1.3125 25.9375 C-0.14749104 28.27193661 -0.14749104 28.27193661 2.625 28.75 C3.40875 28.8325 4.1925 28.915 5 29 C5 26.29745539 4.96569331 24.49470772 4 22 C3.41347656 21.71898438 2.82695312 21.43796875 2.22265625 21.1484375 C-0.53381586 19.7241795 -2.21591226 17.96806618 -4.3125 15.6875 C-5.03050781 14.92824219 -5.74851563 14.16898438 -6.48828125 13.38671875 C-8 11 -8 11 -7.73046875 8.20703125 C-7.48941406 7.47871094 -7.24835938 6.75039063 -7 6 C-6.360625 5.896875 -5.72125 5.79375 -5.0625 5.6875 C-4.0415625 5.3471875 -4.0415625 5.3471875 -3 5 C-2.67 4.01 -2.34 3.02 -2 2 C-4.31 2.33 -6.62 2.66 -9 3 C-9 2.34 -9 1.68 -9 1 C-5.9167365 -0.54163175 -3.39121901 -0.29747535 0 0 Z " fill="#A755F4" transform="translate(163,39)"/>
<path d="M0 0 C4.22797927 1.67357513 4.22797927 1.67357513 6 4 C6.55116813 8.37151981 6.34213687 12.61557936 6 17 C6.74765625 16.84402344 7.4953125 16.68804687 8.265625 16.52734375 C9.25046875 16.33269531 10.2353125 16.13804688 11.25 15.9375 C12.22453125 15.74027344 13.1990625 15.54304688 14.203125 15.33984375 C16.868119 15.01602465 18.48871723 15.14496801 21 16 C18.69 16.33 16.38 16.66 14 17 C13.505 18.485 13.505 18.485 13 20 C6.375 21 6.375 21 3 21 C3 21.66 3 22.32 3 23 C5.97 23 8.94 23 12 23 C7.21609951 25.39195025 5.18231415 26.11896079 -0.125 26.0625 C-3.033125 26.0315625 -3.033125 26.0315625 -6 26 C-6 29.96 -6 33.92 -6 38 C-4.35 38.66 -2.7 39.32 -1 40 C-1 40.99 -1 41.98 -1 43 C-4.3 43 -7.6 43 -11 43 C-11.495 43.99 -11.495 43.99 -12 45 C-16.56360551 44.97718868 -21.12470953 44.89985829 -25.6875 44.8125 C-26.98107422 44.80669922 -28.27464844 44.80089844 -29.60742188 44.79492188 C-30.85458984 44.76591797 -32.10175781 44.73691406 -33.38671875 44.70703125 C-34.53358154 44.6913208 -35.68044434 44.67561035 -36.86206055 44.65942383 C-40.89285997 43.8123695 -42.2802333 42.00681332 -45 39 C-47.31648799 37.96157435 -49.64903024 36.9578025 -52 36 C-53.9375 34.3125 -53.9375 34.3125 -55 33 C-54.34 33 -53.68 33 -53 33 C-53.165 32.113125 -53.33 31.22625 -53.5 30.3125 C-53 27 -53 27 -51.39453125 25.5234375 C-47.45223984 22.99386215 -44.71856623 21.94371325 -40 21 C-39.67 26.28 -39.34 31.56 -39 37 C-35.04 37 -31.08 37 -27 37 C-27.4640625 35.6078125 -27.4640625 35.6078125 -27.9375 34.1875 C-28.625 32.125 -29.3125 30.0625 -30 28 C-27.82236738 25.5174564 -26.27939834 24.55256197 -23.05859375 23.8671875 C-22.31029297 23.70089844 -21.56199219 23.53460938 -20.79101562 23.36328125 C-19.62602539 23.12158203 -19.62602539 23.12158203 -18.4375 22.875 C-13.07574234 21.86903348 -13.07574234 21.86903348 -8 20 C-7.5316735 17.41394668 -7.5316735 17.41394668 -7.375 14.4375 C-7.30023438 13.42558594 -7.22546875 12.41367188 -7.1484375 11.37109375 C-7.09945312 10.58863281 -7.05046875 9.80617188 -7 9 C-9.64 9 -12.28 9 -15 9 C-14 6 -14 6 -12.36328125 4.83203125 C-8.06030271 2.69283621 -4.92614603 1.5073854 0 2 C0 1.34 0 0.68 0 0 Z " fill="#A259F2" transform="translate(136,58)"/>
<path d="M0 0 C-5.12325529 2.45489316 -9.33895411 3.50341703 -15 4 C-15.33 4.99 -15.66 5.98 -16 7 C-15.236875 6.835 -14.47375 6.67 -13.6875 6.5 C-11 6 -11 6 -8 6 C-7.505 6.99 -7.505 6.99 -7 8 C-6.01 8.33 -5.02 8.66 -4 9 C-7.12621626 12.39417765 -9.56541027 14.6062718 -14 16 C-14 16.99 -14 17.98 -14 19 C-15.49609375 20.4296875 -15.49609375 20.4296875 -17.4375 21.875 C-20.44951784 24.30048726 -20.44951784 24.30048726 -21.9375 27.875 C-21.958125 28.57625 -21.97875 29.2775 -22 30 C-19.67108098 29.95547581 -19.67108098 29.95547581 -17 29 C-15.7168401 27.55644511 -14.43725584 26.10483706 -13.26953125 24.56640625 C-11.46409336 22.33877366 -9.29178899 20.70247182 -7 19 C-6.505 19.99 -6.505 19.99 -6 21 C-6.66 21 -7.32 21 -8 21 C-8.26425781 21.58394531 -8.52851562 22.16789062 -8.80078125 22.76953125 C-10.04948047 25.09203044 -11.37612918 26.77664886 -13.1875 28.6875 C-13.73792969 29.28949219 -14.28835937 29.89148438 -14.85546875 30.51171875 C-19.91691956 34.02431029 -25.80327797 33.02282853 -31.5625 32 C-40.81081963 30.21818382 -51.41740904 27.00300082 -57.4375 19.3125 C-59 16 -59 16 -58.81323242 13.89453125 C-58 12 -58 12 -54.55078125 10.375 C-49.8459201 8.82452249 -45.05353236 7.88773154 -40.1875 7 C-34.80056997 5.97356813 -29.46242311 4.95483481 -24.1875 3.4375 C-19.84950155 2.19118616 -15.47931597 1.17314575 -11.0625 0.25 C-9.19271484 -0.14445312 -9.19271484 -0.14445312 -7.28515625 -0.546875 C-4.35864018 -0.95053239 -2.72258182 -1.00987997 0 0 Z M-30.25 11.875 C-31.44625 12.14441406 -32.6425 12.41382813 -33.875 12.69140625 C-35.01453125 12.95566406 -36.1540625 13.21992187 -37.328125 13.4921875 C-38.3687207 13.73308105 -39.40931641 13.97397461 -40.48144531 14.22216797 C-43.13976529 14.82845818 -43.13976529 14.82845818 -45 17 C-39.85756688 21.32973252 -34.7564524 24.86969123 -28 26 C-24.76049122 25.49826475 -23.21577451 24.56761088 -21.01953125 22.1640625 C-20.49552734 21.59429687 -19.97152344 21.02453125 -19.43164062 20.4375 C-18.89732422 19.839375 -18.36300781 19.24125 -17.8125 18.625 C-17.26658203 18.03460938 -16.72066406 17.44421875 -16.15820312 16.8359375 C-12.94709406 13.32091205 -12.94709406 13.32091205 -11 9 C-17.70961907 8.80059263 -23.75343652 10.35015158 -30.25 11.875 Z " fill="#9757D9" transform="translate(93,36)"/>
<path d="M0 0 C0.66 0.33 1.32 0.66 2 1 C2 8.26 2 15.52 2 23 C1.34 23 0.68 23 0 23 C-0.4125 22.566875 -0.825 22.13375 -1.25 21.6875 C-3.62831863 19.39412132 -5.93807892 18.22476843 -9 17 C-12.63837356 17.42215623 -15.43639738 18.5610571 -18.64453125 20.28515625 C-19.48564453 20.73310547 -20.32675781 21.18105469 -21.19335938 21.64257812 C-22.05767578 22.11115234 -22.92199219 22.57972656 -23.8125 23.0625 C-24.69615234 23.53494141 -25.57980469 24.00738281 -26.49023438 24.49414062 C-28.66331578 25.65703284 -30.83302284 26.82578375 -33 28 C-33 29.65 -33 31.3 -33 33 C-28.545 34.98 -28.545 34.98 -24 37 C-24.875 41.75 -24.875 41.75 -26 44 C-33.51590992 41.96867299 -41.97144241 38.1002174 -47 32 C-47.0625 28.5 -47.0625 28.5 -46 25 C-42.27635655 21.45035858 -38.02123 19.44208724 -33.375 17.375 C-26.72774811 14.33506246 -20.21260076 11.10267512 -13.75 7.6875 C-12.55383057 7.05690674 -12.55383057 7.05690674 -11.33349609 6.41357422 C-8.17794232 4.73775482 -5.09625238 3.06112284 -2.078125 1.14453125 C-1.39234375 0.76683594 -0.7065625 0.38914062 0 0 Z " fill="#EC8D40" transform="translate(82,109)"/>
<path d="M0 0 C3.17372389 1.38236258 6.20817498 2.9751966 9.25 4.625 C15.71943412 8.41722255 15.71943412 8.41722255 23 9 C22.67 9.66 22.34 10.32 22 11 C18.9375 11.625 18.9375 11.625 16 12 C16.33 12.99 16.66 13.98 17 15 C17.66 15 18.32 15 19 15 C19.66 14.34 20.32 13.68 21 13 C22.125 17.75 22.125 17.75 21 20 C21.61488281 20.12117188 22.22976562 20.24234375 22.86328125 20.3671875 C23.67152344 20.53476563 24.47976562 20.70234375 25.3125 20.875 C26.11300781 21.03742188 26.91351563 21.19984375 27.73828125 21.3671875 C30 22 30 22 33 24 C36.12521833 24.16699232 36.12521833 24.16699232 39 24 C38.34 23.67 37.68 23.34 37 23 C37 22.01 37 21.02 37 20 C38.44096586 20.42594588 39.87768712 20.86626633 41.3125 21.3125 C42.11300781 21.55613281 42.91351563 21.79976562 43.73828125 22.05078125 C46.12757893 23.05354349 47.39589507 23.98059282 49 26 C49 26.66 49 27.32 49 28 C55.6 28 62.2 28 69 28 C66.42171836 30.57828164 65.13646573 31.59906459 61.98828125 33.04296875 C61.23095703 33.39423828 60.47363281 33.74550781 59.69335938 34.10742188 C58.90767578 34.46384766 58.12199219 34.82027344 57.3125 35.1875 C56.51521484 35.55552734 55.71792969 35.92355469 54.89648438 36.30273438 C52.93370231 37.2077297 50.96720361 38.10465652 49 39 C48 38 48 38 47.90234375 36.15234375 C47.93489583 34.1015625 47.96744792 32.05078125 48 30 C45.69 30 43.38 30 41 30 C41 29.34 41 28.68 41 28 C40.0409375 28.12375 40.0409375 28.12375 39.0625 28.25 C36.03183963 28.00259915 34.61046537 27.437183 31.9375 26.125 C26.49520323 23.53255458 20.93704597 22.76347799 15 22 C16.32 21.67 17.64 21.34 19 21 C19 20.34 19 19.68 19 19 C18.29641357 18.72671875 17.59282715 18.4534375 16.86791992 18.171875 C11.57902996 16.01075541 6.46410884 13.46672179 1.3125 11 C0.15943359 10.4534375 -0.99363281 9.906875 -2.18164062 9.34375 C-3.8300293 8.55484375 -3.8300293 8.55484375 -5.51171875 7.75 C-6.51678467 7.27046875 -7.52185059 6.7909375 -8.55737305 6.296875 C-11 5 -11 5 -13 3 C-13 2.01 -13 1.02 -13 0 C-8.29905832 -2.80182459 -4.99176279 -1.64596495 0 0 Z " fill="#9856DB" transform="translate(47,74)"/>
<path d="M0 0 C2.71982123 0.92964665 5.27715143 1.97809039 7.88671875 3.17578125 C9.88074097 3.86012024 11.87957567 4.53093933 13.88671875 5.17578125 C13.88671875 5.83578125 13.88671875 6.49578125 13.88671875 7.17578125 C16.19671875 7.17578125 18.50671875 7.17578125 20.88671875 7.17578125 C21.87671875 19.55078125 21.87671875 19.55078125 22.88671875 32.17578125 C37.73671875 32.67078125 37.73671875 32.67078125 52.88671875 33.17578125 C52.88671875 33.50578125 52.88671875 33.83578125 52.88671875 34.17578125 C48.49089935 34.20485709 44.09510476 34.22260565 39.69921875 34.23828125 C38.45333984 34.24666016 37.20746094 34.25503906 35.92382812 34.26367188 C34.12075195 34.26850586 34.12075195 34.26850586 32.28125 34.2734375 C31.17628174 34.27867432 30.07131348 34.28391113 28.93286133 34.28930664 C26.1034427 34.18385824 23.60825059 33.95454671 20.88671875 33.17578125 C17.42279834 26.24794044 18.75204864 15.77716057 18.88671875 8.17578125 C16.24671875 8.17578125 13.60671875 8.17578125 10.88671875 8.17578125 C11.21671875 18.07578125 11.54671875 27.97578125 11.88671875 38.17578125 C10.89671875 37.84578125 9.90671875 37.51578125 8.88671875 37.17578125 C8.89719238 36.48540771 8.90766602 35.79503418 8.91845703 35.08374023 C8.96027572 31.92695826 8.98612677 28.7702348 9.01171875 25.61328125 C9.02847656 24.52724609 9.04523438 23.44121094 9.0625 22.32226562 C9.06894531 21.26201172 9.07539062 20.20175781 9.08203125 19.109375 C9.09250488 18.14056396 9.10297852 17.17175293 9.11376953 16.17358398 C8.8424465 12.59124475 7.96697813 9.59784859 6.88671875 6.17578125 C5.81188232 6.18625488 4.7370459 6.19672852 3.62963867 6.20751953 C-0.3566556 6.24370904 -4.34293533 6.26667788 -8.3293457 6.28564453 C-10.05495648 6.29570451 -11.7805502 6.30935401 -13.50610352 6.32666016 C-15.98588265 6.35090879 -18.46543648 6.36226426 -20.9453125 6.37109375 C-21.7172847 6.38141632 -22.4892569 6.39173889 -23.28462219 6.40237427 C-27.10609601 6.40317547 -28.85464232 6.3482072 -32.11328125 4.17578125 C-31.73828125 2.23828125 -31.73828125 2.23828125 -31.11328125 0.17578125 C-23.61850344 -3.57160765 -8.02413232 -1.98546109 0 0 Z " fill="#459FD6" transform="translate(74.11328125,96.82421875)"/>
<path d="M0 0 C0.33 5.28 0.66 10.56 1 16 C2.40894531 16.03738281 3.81789063 16.07476562 5.26953125 16.11328125 C7.11721439 16.17893497 8.96486945 16.24538251 10.8125 16.3125 C11.74126953 16.33505859 12.67003906 16.35761719 13.62695312 16.38085938 C14.51962891 16.41630859 15.41230469 16.45175781 16.33203125 16.48828125 C17.56530151 16.52755737 17.56530151 16.52755737 18.82348633 16.56762695 C21.46555899 17.09248513 22.23822414 18.0256984 24 20 C26.59915538 21.19027984 26.59915538 21.19027984 29 22 C28.67 22.66 28.34 23.32 28 24 C23.43639449 23.97718868 18.87529047 23.89985829 14.3125 23.8125 C13.01892578 23.80669922 11.72535156 23.80089844 10.39257812 23.79492188 C9.14541016 23.76591797 7.89824219 23.73691406 6.61328125 23.70703125 C5.46641846 23.6913208 4.31955566 23.67561035 3.13793945 23.65942383 C-0.89285997 22.8123695 -2.2802333 21.00681332 -5 18 C-7.31648799 16.96157435 -9.64903024 15.9578025 -12 15 C-13.9375 13.3125 -13.9375 13.3125 -15 12 C-14.34 12 -13.68 12 -13 12 C-13.165 11.113125 -13.33 10.22625 -13.5 9.3125 C-13 6 -13 6 -11.32421875 4.5234375 C-4.08936404 0 -4.08936404 0 0 0 Z " fill="#419BD0" transform="translate(96,79)"/>
<path d="M0 0 C0.66 0.33 1.32 0.66 2 1 C2 8.26 2 15.52 2 23 C1.34 23 0.68 23 0 23 C-0.4125 22.566875 -0.825 22.13375 -1.25 21.6875 C-3.66528204 19.35847803 -5.86466938 18.20589639 -9 17 C-12.77376551 17.21615256 -12.77376551 17.21615256 -16 18 C-15.67 16.68 -15.34 15.36 -15 14 C-17.39872899 13.13260246 -18.5459635 12.80776681 -20.9375 13.8203125 C-21.9584375 14.46613281 -21.9584375 14.46613281 -23 15.125 C-27.59569955 17.86870122 -32.31950923 19.84864543 -37.30078125 21.7890625 C-39.93264815 22.96978426 -41.93052963 23.98896173 -44 26 C-44.48057715 28.0488648 -44.48057715 28.0488648 -44.25 30.1875 C-44.1675 31.445625 -44.085 32.70375 -44 34 C-44.66 34 -45.32 34 -46 34 C-47.46149497 27.78864639 -47.46149497 27.78864639 -45.55078125 24.5234375 C-42.20573038 21.21424476 -38.71231408 19.67760665 -34.4375 17.8125 C-32.73404321 17.03874324 -31.03226717 16.26127753 -29.33203125 15.48046875 C-28.45627441 15.07876465 -27.58051758 14.67706055 -26.67822266 14.26318359 C-22.25948526 12.1790863 -17.9411361 9.91244661 -13.625 7.625 C-12.83536865 7.20839111 -12.0457373 6.79178223 -11.23217773 6.36254883 C-8.11270844 4.70506698 -5.06946048 3.04413441 -2.0859375 1.1484375 C-1.39757812 0.76945312 -0.70921875 0.39046875 0 0 Z " fill="#DB8035" transform="translate(82,109)"/>
<path d="M0 0 C0.6069873 0.3098584 1.21397461 0.6197168 1.83935547 0.93896484 C8.64948273 4.24262244 15.3798026 6.69308898 22.71435547 8.62646484 C23.95088867 8.96387695 23.95088867 8.96387695 25.21240234 9.30810547 C27.99925619 10.06200811 30.79254149 10.78546113 33.58935547 11.50146484 C34.48154785 11.7413916 35.37374023 11.98131836 36.29296875 12.22851562 C41.86361527 13.59947819 45.3492762 13.74618281 50.71435547 11.62646484 C50.71435547 12.28646484 50.71435547 12.94646484 50.71435547 13.62646484 C50.05435547 13.62646484 49.39435547 13.62646484 48.71435547 13.62646484 C48.21935547 15.11146484 48.21935547 15.11146484 47.71435547 16.62646484 C47.02470703 16.48208984 46.33505859 16.33771484 45.62451172 16.18896484 C39.52633627 14.98438698 33.92672102 14.42278073 27.71435547 14.62646484 C29.69435547 15.61646484 31.67435547 16.60646484 33.71435547 17.62646484 C33.38435547 18.28646484 33.05435547 18.94646484 32.71435547 19.62646484 C27.13365172 18.28053041 21.57298442 16.88221994 16.05029297 15.31396484 C15.25091309 15.08733154 14.4515332 14.86069824 13.62792969 14.62719727 C12.03710796 14.17357331 10.44754607 13.71550422 8.859375 13.25268555 C8.12058105 13.04216553 7.38178711 12.83164551 6.62060547 12.61474609 C5.96382812 12.42436768 5.30705078 12.23398926 4.63037109 12.0378418 C1.71471501 11.41183766 -0.59194535 11.27961526 -3.28564453 12.62646484 C-3.28564453 11.30646484 -3.28564453 9.98646484 -3.28564453 8.62646484 C-0.19754758 6.86183801 0.94747683 6.62646484 4.71435547 6.62646484 C2.18479019 3.53477395 -0.51019065 2.71715152 -4.28564453 1.62646484 C-4.28564453 0.96646484 -4.28564453 0.30646484 -4.28564453 -0.37353516 C-9.56764046 -1.57341561 -9.56764046 -1.57341561 -14.28564453 0.62646484 C-13.95564453 1.28646484 -13.62564453 1.94646484 -13.28564453 2.62646484 C-14.27564453 2.29646484 -15.26564453 1.96646484 -16.28564453 1.62646484 C-15.97314453 -0.31103516 -15.97314453 -0.31103516 -15.28564453 -2.37353516 C-9.76962327 -4.21220891 -5.06730203 -2.52321301 0 0 Z " fill="#9A56DC" transform="translate(102.28564453125,29.37353515625)"/>
<path d="M0 0 C1.68664786 -0.0823499 3.37451707 -0.1397912 5.0625 -0.1875 C6.47208984 -0.23970703 6.47208984 -0.23970703 7.91015625 -0.29296875 C15.35119818 0.4125662 22.0283386 5.11147402 28.4375 8.6875 C29.35982422 9.19861328 30.28214844 9.70972656 31.23242188 10.23632812 C33.48995404 11.48791332 35.74574241 12.74252949 38 14 C36 15 36 15 32.875 14.0625 C31.92625 13.711875 30.9775 13.36125 30 13 C30.66 15.31 31.32 17.62 32 20 C27.5251617 18.61902341 23.46797526 16.85081321 19.2890625 14.7421875 C18.67606293 14.43427277 18.06306335 14.12635803 17.43148804 13.80911255 C15.49406342 12.83484937 13.5595124 11.85503083 11.625 10.875 C10.30357212 10.2092647 8.98195924 9.54389647 7.66015625 8.87890625 C4.43795475 7.25684177 1.21830407 5.62978626 -2 4 C-1.34 2.68 -0.68 1.36 0 0 Z " fill="#E88A42" transform="translate(148,102)"/>
<path d="M0 0 C0.66 0.99 1.32 1.98 2 3 C-3.36812782 6.86904957 -7.36501601 8.64455443 -14 9 C-14.185625 9.763125 -14.37125 10.52625 -14.5625 11.3125 C-16.60523184 15.1315204 -18.97910882 15.63698604 -23 17 C-24.66280987 17.35206847 -26.32895214 17.68937492 -28 18 C-28.05383848 15.54137599 -28.09359038 13.0839245 -28.125 10.625 C-28.14175781 9.92632812 -28.15851563 9.22765625 -28.17578125 8.5078125 C-28.19344267 6.67102514 -28.10303261 4.83398037 -28 3 C-24.27942763 -0.72057237 -18.04235638 0.37217229 -13 0.1875 C-11.78570312 0.12369141 -10.57140625 0.05988281 -9.3203125 -0.00585938 C-8.16273437 -0.05162109 -7.00515625 -0.09738281 -5.8125 -0.14453125 C-4.74644531 -0.18940674 -3.68039063 -0.23428223 -2.58203125 -0.28051758 C-1.72996094 -0.18794678 -0.87789062 -0.09537598 0 0 Z " fill="#349FD4" transform="translate(111,59)"/>
<path d="M0 0 C4.20298507 1.5761194 4.20298507 1.5761194 6 4 C6.66620155 8.7078243 6.61425159 13.28680033 6 18 C4 20 4 20 1.3984375 20.1953125 C-1.40104167 20.13020833 -4.20052083 20.06510417 -7 20 C-7 16.37 -7 12.74 -7 9 C-9.64 9 -12.28 9 -15 9 C-14 6 -14 6 -12.36328125 4.83203125 C-8.06030271 2.69283621 -4.92614603 1.5073854 0 2 C0 1.34 0 0.68 0 0 Z " fill="#399AD2" transform="translate(136,58)"/>
<path d="M0 0 C2.4726862 1.28524948 4.92775071 2.59904723 7.37841797 3.92578125 C14.42749902 7.7881713 14.42749902 7.7881713 21.81591797 10.92578125 C21.81591797 11.58578125 21.81591797 12.24578125 21.81591797 12.92578125 C23.79591797 12.92578125 25.77591797 12.92578125 27.81591797 12.92578125 C28.31091797 14.41078125 28.31091797 14.41078125 28.81591797 15.92578125 C17.24198758 19.42431921 8.08990985 13.52423319 -1.99267578 8.3137207 C-4.42072072 6.77590481 -6.2056073 5.00083679 -8.18408203 2.92578125 C-9.49966906 1.90254689 -10.82785958 0.89451157 -12.18408203 -0.07421875 C-9.52451898 -5.39334484 -4.03102631 -1.98261969 0 0 Z " fill="#EB904A" transform="translate(70.18408203125,152.07421875)"/>
<path d="M0 0 C1.25 1.9375 1.25 1.9375 2 4 C2.66 4.66 3.32 5.32 4 6 C2.1875 8.5 2.1875 8.5 0 11 C-0.99 11 -1.98 11 -3 11 C-3.10699219 11.59167969 -3.21398437 12.18335937 -3.32421875 12.79296875 C-4.08760545 15.28611028 -4.99875884 16.46202484 -6.8125 18.3125 C-7.31394531 18.84488281 -7.81539062 19.37726563 -8.33203125 19.92578125 C-10 21 -10 21 -12.19921875 20.66796875 C-12.79347656 20.44753906 -13.38773438 20.22710937 -14 20 C-14 21.32 -14 22.64 -14 24 C-15.98 24 -17.96 24 -20 24 C-19.34 20.7 -18.68 17.4 -18 14 C-17.01 13.67 -16.02 13.34 -15 13 C-13.181908 11.24360625 -13.181908 11.24360625 -11.4375 9.125 C-10.83808594 8.42632812 -10.23867187 7.72765625 -9.62109375 7.0078125 C-7.86107334 4.89030551 -7.86107334 4.89030551 -6 2 C-6.61875 2.185625 -7.2375 2.37125 -7.875 2.5625 C-10 3 -10 3 -12 2 C-12 1.34 -12 0.68 -12 0 C-7.70682182 -0.91996675 -4.24986926 -1.25564319 0 0 Z " fill="#A456F1" transform="translate(160,79)"/>
<path d="M0 0 C-2.31 0.33 -4.62 0.66 -7 1 C-7.33 1.99 -7.66 2.98 -8 4 C-14.625 5 -14.625 5 -18 5 C-18 5.66 -18 6.32 -18 7 C-15.03 7 -12.06 7 -9 7 C-13.16961668 9.08480834 -15.45296914 10.14000179 -20.015625 10.5 C-21.52189453 10.62375 -21.52189453 10.62375 -23.05859375 10.75 C-24.11175781 10.8325 -25.16492188 10.915 -26.25 11 C-28.3178895 11.16440364 -30.38560547 11.33100734 -32.453125 11.5 C-33.9062207 11.61794922 -33.9062207 11.61794922 -35.38867188 11.73828125 C-38.17964867 11.97922608 -38.17964867 11.97922608 -41.609375 12.6875 C-42.39828125 12.790625 -43.1871875 12.89375 -44 13 C-44.66 12.34 -45.32 11.68 -46 11 C-39.1933044 4.1933044 -28.55994015 3.70535174 -19.3984375 3.30859375 C-16.81743825 3.22483148 -16.81743825 3.22483148 -15 1 C-12.5390625 0.33203125 -12.5390625 0.33203125 -9.625 -0.1875 C-8.19027344 -0.45626953 -8.19027344 -0.45626953 -6.7265625 -0.73046875 C-4.12689671 -0.98745577 -2.45299695 -0.81960325 0 0 Z " fill="#9B5BE8" transform="translate(157,74)"/>
<path d="M0 0 C0.020625 0.7425 0.04125 1.485 0.0625 2.25 C1.14587926 5.42791249 1.74474412 5.72751232 4.5625 7.3125 C5.696875 7.869375 6.83125 8.42625 8 9 C8 10.32 8 11.64 8 13 C8.99 13.33 9.98 13.66 11 14 C10 15 10 15 7.5 15.3125 C3.47382042 14.95301968 0.65830592 13.71099715 -2.94921875 11.97265625 C-5.11732184 10.89377108 -5.11732184 10.89377108 -8 10 C-8 8.35 -8 6.7 -8 5 C-8.928125 5.309375 -8.928125 5.309375 -9.875 5.625 C-10.57625 5.74875 -11.2775 5.8725 -12 6 C-12.66 5.34 -13.32 4.68 -14 4 C-9.87944246 -0.77117189 -6.01206434 -1.3981545 0 0 Z " fill="#A555F5" transform="translate(76,84)"/>
<path d="M0 0 C1.33257403 10.55808656 1.33257403 10.55808656 0 15 C-1.2375 15.04125 -2.475 15.0825 -3.75 15.125 C-4.79414063 15.15980469 -4.79414063 15.15980469 -5.859375 15.1953125 C-8 15 -8 15 -12 13 C-12 9.04 -12 5.08 -12 1 C-7.915021 0.45533613 -4.1274515 0 0 0 Z " fill="#449DD8" transform="translate(142,83)"/>
<path d="M0 0 C0.90621094 0.0103125 1.81242187 0.020625 2.74609375 0.03125 C9.40877016 0.18918011 9.40877016 0.18918011 12.875 2.5 C12.5 4.4375 12.5 4.4375 11.875 6.5 C8.82581794 8.02459103 5.65449808 7.64622866 2.3125 7.625 C1.59320313 7.62306641 0.87390625 7.62113281 0.1328125 7.61914062 C-5.01624543 7.57739151 -10.0227536 7.22889234 -15.125 6.5 C-10.95898365 -0.12379169 -7.54057318 -0.34619561 0 0 Z " fill="#5DA6CF" transform="translate(165.125,95.5)"/>
<path d="M0 0 C0 0.66 0 1.32 0 2 C-4.62197306 4.21854707 -7.76824163 5.38281159 -13 5 C-13 5.66 -13 6.32 -13 7 C-12.34 7.33 -11.68 7.66 -11 8 C-12.65 8 -14.3 8 -16 8 C-16 8.66 -16 9.32 -16 10 C-19.63 10.66 -23.26 11.32 -27 12 C-27 11.34 -27 10.68 -27 10 C-25.68 9.34 -24.36 8.68 -23 8 C-23 7.34 -23 6.68 -23 6 C-22.34 5.34 -21.68 4.68 -21 4 C-21.33 3.01 -21.66 2.02 -22 1 C-21.67 0.34 -21.34 -0.32 -21 -1 C-20.16855469 -0.98839844 -19.33710937 -0.97679687 -18.48046875 -0.96484375 C-16.85044922 -0.95130859 -16.85044922 -0.95130859 -15.1875 -0.9375 C-13.56908203 -0.92009766 -13.56908203 -0.92009766 -11.91796875 -0.90234375 C-3.1640625 -1.1953125 -3.1640625 -1.1953125 0 0 Z " fill="#F7903E" transform="translate(145,147)"/>
<path d="M0 0 C2.31 0.66 4.62 1.32 7 2 C7 2.66 7 3.32 7 4 C9.31 4 11.62 4 14 4 C14.66 12.25 15.32 20.5 16 29 C30.85 29.495 30.85 29.495 46 30 C46 30.33 46 30.66 46 31 C41.6041806 31.02907584 37.20838601 31.0468244 32.8125 31.0625 C31.56662109 31.07087891 30.32074219 31.07925781 29.03710938 31.08789062 C27.2340332 31.09272461 27.2340332 31.09272461 25.39453125 31.09765625 C23.73707886 31.10551147 23.73707886 31.10551147 22.04614258 31.11352539 C19.21672395 31.00807699 16.72153184 30.77876546 14 30 C10.53607959 23.07215919 11.86532989 12.60137932 12 5 C9.36 5 6.72 5 4 5 C4.33 14.9 4.66 24.8 5 35 C4.01 34.67 3.02 34.34 2 34 C2.01047363 33.32533691 2.02094727 32.65067383 2.03173828 31.95556641 C2.07377452 28.84541679 2.09947563 25.73532726 2.125 22.625 C2.14175781 21.56410156 2.15851563 20.50320312 2.17578125 19.41015625 C2.21702572 12.68730739 1.62170836 6.52888452 0 0 Z " fill="#54A1CC" transform="translate(81,100)"/>
<path d="M0 0 C0.66 0.66 1.32 1.32 2 2 C1.67 2.66 1.34 3.32 1 4 C-1.06640625 4.6328125 -1.06640625 4.6328125 -3.5625 5.125 C-4.38878906 5.29257812 -5.21507812 5.46015625 -6.06640625 5.6328125 C-6.70449219 5.75398438 -7.34257813 5.87515625 -8 6 C-7.649375 7.11375 -7.29875 8.2275 -6.9375 9.375 C-6 13 -6 13 -7 15 C-13.0419149 14.88153108 -13.0419149 14.88153108 -15.61328125 12.515625 C-17.00309046 10.68342581 -18.14904953 9.14067229 -19 7 C-18.546875 4.88208008 -18.546875 4.88208008 -18 3 C-15.04364476 2.44456356 -12.08589268 1.90517502 -9.125 1.375 C-8.28324219 1.21515625 -7.44148438 1.0553125 -6.57421875 0.890625 C-5.76855469 0.74882813 -4.96289062 0.60703125 -4.1328125 0.4609375 C-3.38918457 0.32478027 -2.64555664 0.18862305 -1.87939453 0.04833984 C-1.25919434 0.0323877 -0.63899414 0.01643555 0 0 Z " fill="#A655F5" transform="translate(55,45)"/>
<path d="M0 0 C0 4 0 4 -1.27661133 5.63598633 C-3.00062034 7.00049098 -4.57498923 7.91858486 -6.57421875 8.82421875 C-7.57485352 9.28344727 -7.57485352 9.28344727 -8.59570312 9.75195312 C-9.28599609 10.06068359 -9.97628906 10.36941406 -10.6875 10.6875 C-11.38939453 11.00783203 -12.09128906 11.32816406 -12.81445312 11.65820312 C-14.54025143 12.44479147 -16.2697711 13.22320597 -18 14 C-19.65 12.02 -21.3 10.04 -23 8 C-22.38253906 7.76925781 -21.76507813 7.53851563 -21.12890625 7.30078125 C-15.75967807 5.23317892 -10.88133109 2.92164926 -6.0078125 -0.14453125 C-3.56852037 -1.18384054 -2.44653021 -0.89413548 0 0 Z " fill="#DF8740" transform="translate(67,122)"/>
<path d="M0 0 C0.66 0.33 1.32 0.66 2 1 C0.60770997 2.73202093 -0.78900556 4.46048484 -2.1875 6.1875 C-2.96480469 7.15042969 -3.74210937 8.11335938 -4.54296875 9.10546875 C-6.90585572 11.88909235 -9.40435403 14.43530722 -12 17 C-12.495 17.680625 -12.99 18.36125 -13.5 19.0625 C-15.38845917 21.50175976 -17.55784295 23.11287864 -20 25 C-20.41121094 25.53496094 -20.82242188 26.06992188 -21.24609375 26.62109375 C-23.53517641 29.30719887 -25.40445524 30.85477584 -29.02783203 31.18457031 C-35.34849079 31.21383878 -41.97812492 31.00729169 -48 29 C-48.33 28.01 -48.66 27.02 -49 26 C-45.37 26.33 -41.74 26.66 -38 27 C-38 26.01 -38 25.02 -38 24 C-35.69 24 -33.38 24 -31 24 C-31.99 26.475 -31.99 26.475 -33 29 C-31.02 29 -29.04 29 -27 29 C-27 27.68 -27 26.36 -27 25 C-26.278125 24.938125 -25.55625 24.87625 -24.8125 24.8125 C-21.1002435 23.74007034 -19.48778932 21.90242087 -17 19 C-16.505 17.515 -16.505 17.515 -16 16 C-15.01 16 -14.02 16 -13 16 C-12.73960937 15.41089844 -12.47921875 14.82179688 -12.2109375 14.21484375 C-10.92577526 11.86424056 -9.56513183 10.39672944 -7.625 8.5625 C-4.83854727 5.86330571 -2.34766619 3.09891937 0 0 Z " fill="#855ED0" transform="translate(173,74)"/>
<path d="M0 0 C3.53219261 0.6781298 7.00852077 1.48141336 10.4921875 2.375 C11.52730469 2.63796875 12.56242187 2.9009375 13.62890625 3.171875 C15.78563445 3.72208725 17.94188936 4.27415824 20.09765625 4.828125 C30.65864846 8.06051692 30.65864846 8.06051692 41 6 C41 6.66 41 7.32 41 8 C40.34 8 39.68 8 39 8 C38.67 8.99 38.34 9.98 38 11 C37.31035156 10.855625 36.62070313 10.71125 35.91015625 10.5625 C29.8119808 9.35792213 24.21236555 8.79631588 18 9 C19.98 9.99 21.96 10.98 24 12 C23.67 12.66 23.34 13.32 23 14 C10.33029613 10.92482916 10.33029613 10.92482916 5 9 C5 8.67 5 8.34 5 8 C6.134375 8.020625 7.26875 8.04125 8.4375 8.0625 C11.81575674 8.41577477 11.81575674 8.41577477 13 7 C10.69 6.34 8.38 5.68 6 5 C6 4.34 6 3.68 6 3 C4.02 2.34 2.04 1.68 0 1 C0 0.67 0 0.34 0 0 Z " fill="#9B5BDD" transform="translate(112,35)"/>
<path d="M0 0 C0.83265381 0.00523682 1.66530762 0.01047363 2.52319336 0.01586914 C3.42231445 0.0190918 4.32143555 0.02231445 5.24780273 0.02563477 C6.66609375 0.03820312 6.66609375 0.03820312 8.11303711 0.05102539 C9.06243164 0.05553711 10.01182617 0.06004883 10.98999023 0.06469727 C13.34356776 0.07652429 15.69702188 0.09300514 18.05053711 0.11352539 C15.90195271 2.47373506 13.93310346 3.82904007 11.03881836 5.15649414 C9.90283203 5.68339844 9.90283203 5.68339844 8.74389648 6.22094727 C7.95821289 6.57737305 7.1725293 6.93379883 6.36303711 7.30102539 C5.56575195 7.66905273 4.7684668 8.03708008 3.94702148 8.41625977 C1.98423942 9.32125509 0.01774072 10.21818191 -1.94946289 11.11352539 C-2.94946289 10.11352539 -2.94946289 10.11352539 -3.08227539 8.08227539 C-3.07969727 7.26758789 -3.07711914 6.45290039 -3.07446289 5.61352539 C-3.07704102 4.79883789 -3.07961914 3.98415039 -3.08227539 3.14477539 C-2.90591781 0.44754187 -2.70145062 0.15731679 0 0 Z " fill="#A87752" transform="translate(97.949462890625,101.886474609375)"/>
<path d="M0 0 C14.78132118 -0.55353075 14.78132118 -0.55353075 21 3 C20.34 4.32 19.68 5.64 19 7 C19.66 7 20.32 7 21 7 C21 7.66 21 8.32 21 9 C15.58307967 9.31012903 12.01512037 8.5083308 7.125 6.1875 C5.42730469 5.40439453 5.42730469 5.40439453 3.6953125 4.60546875 C1 3 1 3 0 0 Z " fill="#E08943" transform="translate(99,137)"/>
<path d="M0 0 C1.77260631 0.45142775 3.5430368 0.91140523 5.3125 1.375 C6.79169922 1.75785156 6.79169922 1.75785156 8.30078125 2.1484375 C11 3 11 3 14 5 C17.12521833 5.16699232 17.12521833 5.16699232 20 5 C19.34 4.67 18.68 4.34 18 4 C18 3.01 18 2.02 18 1 C19.44096586 1.42594588 20.87768712 1.86626633 22.3125 2.3125 C23.11300781 2.55613281 23.91351563 2.79976563 24.73828125 3.05078125 C27.12973213 4.05444717 28.41606268 4.95755451 30 7 C29.6875 9.1875 29.6875 9.1875 29 11 C26.69 11 24.38 11 22 11 C22 10.34 22 9.68 22 9 C21.360625 9.0825 20.72125 9.165 20.0625 9.25 C17.03183963 9.00259915 15.61046537 8.437183 12.9375 7.125 C7.49520323 4.53255458 1.93704597 3.76347799 -4 3 C-2.68 2.67 -1.36 2.34 0 2 C0 1.34 0 0.68 0 0 Z " fill="#9262F3" transform="translate(66,93)"/>
<path d="M0 0 C0.99 1.32 1.98 2.64 3 4 C-1.455 6.97 -1.455 6.97 -6 10 C1.94156504 20.17513021 12.29032345 27.61987834 24 33 C20.77509551 34.61245225 18.43772273 33.81573082 15 33 C12.4375 30.6875 12.4375 30.6875 10 28 C8.906875 27.278125 7.81375 26.55625 6.6875 25.8125 C5.800625 25.214375 4.91375 24.61625 4 24 C4 23.34 4 22.68 4 22 C3.14341797 21.63841797 3.14341797 21.63841797 2.26953125 21.26953125 C-0.44867825 19.74901819 -2.20638272 17.97843196 -4.3125 15.6875 C-5.03050781 14.92824219 -5.74851563 14.16898438 -6.48828125 13.38671875 C-8 11 -8 11 -7.73046875 8.20703125 C-7.48941406 7.47871094 -7.24835938 6.75039063 -7 6 C-6.360625 5.896875 -5.72125 5.79375 -5.0625 5.6875 C-4.381875 5.460625 -3.70125 5.23375 -3 5 C-2.67 4.01 -2.34 3.02 -2 2 C-4.31 2.33 -6.62 2.66 -9 3 C-9 2.34 -9 1.68 -9 1 C-5.9167365 -0.54163175 -3.39121901 -0.29747535 0 0 Z " fill="#8F57CA" transform="translate(163,39)"/>
<path d="M0 0 C1.68664786 -0.0823499 3.37451707 -0.1397912 5.0625 -0.1875 C6.47208984 -0.23970703 6.47208984 -0.23970703 7.91015625 -0.29296875 C15.35119818 0.4125662 22.0283386 5.11147402 28.4375 8.6875 C29.35982422 9.19861328 30.28214844 9.70972656 31.23242188 10.23632812 C33.48995404 11.48791332 35.74574241 12.74252949 38 14 C36 15 36 15 32.875 14.0625 C31.92625 13.711875 30.9775 13.36125 30 13 C30.66 15.31 31.32 17.62 32 20 C27.0276578 18.50829734 22.58154261 16.39542583 18 14 C21 12 21 12 24 12 C24 12.66 24 13.32 24 14 C24.99 14.33 25.98 14.66 27 15 C27.66 14.01 28.32 13.02 29 12 C26.03419368 10.32921873 23.05044889 8.69330159 20.0625 7.0625 C19.23169922 6.59392578 18.40089844 6.12535156 17.54492188 5.64257812 C11.89097416 2.5846064 7.4299462 1.30495204 1 1 C1.33 2.32 1.66 3.64 2 5 C0.68 4.67 -0.64 4.34 -2 4 C-1.34 2.68 -0.68 1.36 0 0 Z " fill="#D88A53" transform="translate(148,102)"/>
<path d="M0 0 C0 0.99 0 1.98 0 3 C-2.76264289 3.59732819 -5.16032769 4 -8 4 C-7.67 4.99 -7.34 5.98 -7 7 C-2.727719 7.36619551 -0.4544227 6.52079495 3 4 C3.66 3.01 4.32 2.02 5 1 C7.97 1.495 7.97 1.495 11 2 C11 1.34 11 0.68 11 0 C11.99 0.33 12.98 0.66 14 1 C12.02 1.99 12.02 1.99 10 3 C10 3.66 10 4.32 10 5 C8.576875 5.3403125 8.576875 5.3403125 7.125 5.6875 C0.66334097 7.53181968 -5.22528746 10.89695093 -10.9375 14.375 C-11.948125 14.91125 -12.95875 15.4475 -14 16 C-14.99 15.67 -15.98 15.34 -17 15 C-15.68 14.67 -14.36 14.34 -13 14 C-13 13.34 -13 12.68 -13 12 C-11.68 11.34 -10.36 10.68 -9 10 C-10.25541557 7.48916886 -11.50063488 7.12874554 -14 6 C-14 5.34 -14 4.68 -14 4 C-13.30132812 3.79503906 -12.60265625 3.59007812 -11.8828125 3.37890625 C-10.97273438 3.10949219 -10.06265625 2.84007812 -9.125 2.5625 C-8.22007813 2.29566406 -7.31515625 2.02882812 -6.3828125 1.75390625 C-0.83937824 0 -0.83937824 0 0 0 Z " fill="#915FE0" transform="translate(126,55)"/>
<path d="M0 0 C-1.62249941 0.83819158 -3.24808497 1.6704116 -4.875 2.5 C-5.77992187 2.9640625 -6.68484375 3.428125 -7.6171875 3.90625 C-10 5 -10 5 -12 5 C-12 5.66 -12 6.32 -12 7 C-13.65 7.33 -15.3 7.66 -17 8 C-17.33 7.34 -17.66 6.68 -18 6 C-26.91 7.485 -26.91 7.485 -36 9 C-35.12686261 13.36568695 -34.34897511 15.42547265 -32 19 C-36.06540996 17.64486335 -36.97300269 15.69203082 -39 12 C-38.82421875 9.90209961 -38.82421875 9.90209961 -38 8 C-32.21920038 5.27382745 -26.25646779 4.08925884 -20 2.9375 C-18.29130769 2.6151785 -16.58296796 2.2909818 -14.875 1.96484375 C-14.05773437 1.80999512 -13.24046875 1.65514648 -12.3984375 1.49560547 C-10.07141509 1.01475699 -7.79402473 0.43390885 -5.5 -0.18359375 C-2 -1 -2 -1 0 0 Z " fill="#9658DB" transform="translate(73,40)"/>
<path d="M0 0 C15.13989416 7.05920366 30.08249639 14.48448448 45 22 C42 23 42 23 38.55859375 21.5234375 C37.1800327 20.81669833 35.80656375 20.09996569 34.4375 19.375 C33.72239258 19.00906738 33.00728516 18.64313477 32.27050781 18.26611328 C29.11034913 16.64612215 25.97771832 14.98779086 22.86328125 13.28125 C22.00089844 12.8171875 21.13851562 12.353125 20.25 11.875 C19.14398438 11.25238281 19.14398438 11.25238281 18.015625 10.6171875 C15.93986078 9.75378996 15.93986078 9.75378996 13.734375 10.8828125 C13.16203125 11.25148437 12.5896875 11.62015625 12 12 C12.804375 12.61875 13.60875 13.2375 14.4375 13.875 C17 16 17 16 18 18 C14.51329166 16.8905928 11.22515763 15.73662334 8 14 C8.66666667 11.33333333 9.33333333 8.66666667 10 6 C9.36191406 5.81824219 8.72382812 5.63648438 8.06640625 5.44921875 C7.24011719 5.19785156 6.41382813 4.94648438 5.5625 4.6875 C4.73878906 4.44386719 3.91507813 4.20023438 3.06640625 3.94921875 C2.04353516 3.47935547 2.04353516 3.47935547 1 3 C0.67 2.01 0.34 1.02 0 0 Z " fill="#D48A53" transform="translate(48,140)"/>
<path d="M0 0 C0.66 0.99 1.32 1.98 2 3 C-3.36812782 6.86904957 -7.36501601 8.64455443 -14 9 C-14.185625 9.763125 -14.37125 10.52625 -14.5625 11.3125 C-16.60523184 15.1315204 -18.97910882 15.63698604 -23 17 C-24.66280987 17.35206847 -26.32895214 17.68937492 -28 18 C-28.05383848 15.54137599 -28.09359038 13.0839245 -28.125 10.625 C-28.14175781 9.92632812 -28.15851563 9.22765625 -28.17578125 8.5078125 C-28.19344267 6.67102514 -28.10303261 4.83398037 -28 3 C-24.27942763 -0.72057237 -18.04235638 0.37217229 -13 0.1875 C-11.78570312 0.12369141 -10.57140625 0.05988281 -9.3203125 -0.00585938 C-8.16273437 -0.05162109 -7.00515625 -0.09738281 -5.8125 -0.14453125 C-4.74644531 -0.18940674 -3.68039063 -0.23428223 -2.58203125 -0.28051758 C-1.72996094 -0.18794678 -0.87789062 -0.09537598 0 0 Z M-27 4 C-27.24339551 6.89883083 -27.24339551 6.89883083 -27.125 10.125 C-27.10695313 11.22070312 -27.08890625 12.31640625 -27.0703125 13.4453125 C-27.04710938 14.28835937 -27.02390625 15.13140625 -27 16 C-24.52733235 15.65555119 -24.52733235 15.65555119 -22 15 C-21.67 14.34 -21.34 13.68 -21 13 C-19.02477154 11.95191959 -17.02518491 10.9479589 -15 10 C-15 9.01 -15 8.02 -15 7 C-13.7625 7.061875 -12.525 7.12375 -11.25 7.1875 C-8.30742414 7.19271733 -7.14353673 7.0789452 -4.5 5.625 C-2.77390663 4.12364481 -2.77390663 4.12364481 -3 2 C-6.62493334 1.94212216 -10.24974857 1.9064458 -13.875 1.875 C-15.42380859 1.84986328 -15.42380859 1.84986328 -17.00390625 1.82421875 C-17.99003906 1.81777344 -18.97617188 1.81132813 -19.9921875 1.8046875 C-20.90339355 1.79421387 -21.81459961 1.78374023 -22.75341797 1.77294922 C-25.20290436 1.78129007 -25.20290436 1.78129007 -27 4 Z " fill="#4E83C5" transform="translate(111,59)"/>
<path d="M0 0 C2.38670493 1.26044859 4.68366237 2.61019742 7 4 C7 4.66 7 5.32 7 6 C7.66 6.33 8.32 6.66 9 7 C9 7.99 9 8.98 9 10 C8.01 10 7.02 10 6 10 C5.67 9.34 5.34 8.68 5 8 C3.989375 7.896875 2.97875 7.79375 1.9375 7.6875 C-2.91692105 6.83990267 -6.02648252 4.79694347 -10 2 C-9.67 1.01 -9.34 0.02 -9 -1 C-5.11151897 -2.29616034 -3.76983621 -1.52243386 0 0 Z " fill="#F68F3C" transform="translate(68,151)"/>
<path d="M0 0 C7.26 0 14.52 0 22 0 C22.33 1.32 22.66 2.64 23 4 C14.75 4 6.5 4 -2 4 C-1 2 -1 2 0 1 C0 0.67 0 0.34 0 0 Z " fill="#38ABE3" transform="translate(52,97)"/>
<path d="M0 0 C5.09453672 -0.6175196 7.88366546 1.22939021 12 4 C12.33 4.99 12.66 5.98 13 7 C14.8653245 8.01754868 14.8653245 8.01754868 17.0625 8.6875 C17.79597656 8.93886719 18.52945313 9.19023438 19.28515625 9.44921875 C19.85105469 9.63097656 20.41695312 9.81273438 21 10 C20.67 10.66 20.34 11.32 20 12 C9.14395887 10.20822622 9.14395887 10.20822622 5 7 C4.67 6.34 4.34 5.68 4 5 C2.35636866 4.27840576 0.68949614 3.60648579 -1 3 C-0.67 2.01 -0.34 1.02 0 0 Z " fill="#A954F7" transform="translate(40,74)"/>
<path d="M0 0 C4.19469571 0.59924224 8.00999834 1.57499941 12 3 C11.125 6.875 11.125 6.875 10 8 C4.32223263 8.38493338 1.00407501 8.00244501 -4 5 C-4 4.34 -4 3.68 -4 3 C-3.01 2.67 -2.02 2.34 -1 2 C-0.67 1.34 -0.34 0.68 0 0 Z " fill="#9D55EB" transform="translate(179,71)"/>
<path d="M0 0 C16.76612903 -0.26612903 16.76612903 -0.26612903 24 4 C23.67 4.66 23.34 5.32 23 6 C20.69 6 18.38 6 16 6 C16 5.34 16 4.68 16 4 C10.39 4 4.78 4 -1 4 C-0.67 2.68 -0.34 1.36 0 0 Z " fill="#3BA7DE" transform="translate(101,97)"/>
<path d="M0 0 C0.625 1.875 0.625 1.875 1 4 C0 5 -1 6 -2 7 C-0.35 7 1.3 7 3 7 C3 6.34 3 5.68 3 5 C6.465 4.505 6.465 4.505 10 4 C8.48529691 7.02940618 6.0596179 7.64960546 3.0625 9.125 C1.98097656 9.66382812 0.89945313 10.20265625 -0.21484375 10.7578125 C-3 12 -3 12 -5 12 C-5 10.68 -5 9.36 -5 8 C-7.97 7.505 -7.97 7.505 -11 7 C-7.54319097 4.23455278 -3.85658398 2.15078722 0 0 Z " fill="#955EE5" transform="translate(81,76)"/>
<path d="M0 0 C0.33 1.32 0.66 2.64 1 4 C0.01 4 -0.98 4 -2 4 C-2 4.66 -2 5.32 -2 6 C-3.24663331 6.50833591 -4.49749387 7.00631145 -5.75 7.5 C-6.44609375 7.7784375 -7.1421875 8.056875 -7.859375 8.34375 C-10 9 -10 9 -14 9 C-12.73317448 5.09395463 -11.56716435 3.09833197 -8 1 C-5.09746297 0.0022529 -3.17966366 0 0 0 Z " fill="#F8923F" transform="translate(115,159)"/>
<path d="M0 0 C6.75 0.875 6.75 0.875 9 2 C9 2.66 9 3.32 9 4 C9.928125 4.12375 10.85625 4.2475 11.8125 4.375 C15 5 15 5 18 7 C17 8 17 8 14.125 8.3125 C8.75976291 8.27889726 3.90206281 5.98564569 -1 4 C-0.67 2.68 -0.34 1.36 0 0 Z " fill="#A756F4" transform="translate(51,59)"/>
<path d="M0 0 C2 3.75 2 3.75 2 6 C2.96421875 6.06058594 3.9284375 6.12117187 4.921875 6.18359375 C6.18515625 6.26738281 7.4484375 6.35117188 8.75 6.4375 C10.62945312 6.55931641 10.62945312 6.55931641 12.546875 6.68359375 C17.98067498 7.18148719 17.98067498 7.18148719 20 8 C20.33 8.99 20.66 9.98 21 11 C13.74 11 6.48 11 -1 11 C1 10 3 9 5 8 C2.525 7.01 2.525 7.01 0 6 C0 4.02 0 2.04 0 0 Z " fill="#43BAEC" transform="translate(93,124)"/>
<path d="M0 0 C0.33 0.66 0.66 1.32 1 2 C1.66 2 2.32 2 3 2 C3 2.66 3 3.32 3 4 C2.01 4 1.02 4 0 4 C0 4.66 0 5.32 0 6 C-7.28571429 10.57142857 -7.28571429 10.57142857 -12 10 C-12.33 10.66 -12.66 11.32 -13 12 C-13.144375 11.38125 -13.28875 10.7625 -13.4375 10.125 C-13.93152225 7.96741678 -13.93152225 7.96741678 -15 6 C-12.47673704 4.41127888 -11.47616039 3.89286391 -8.5 4.5625 C-5.9237748 5.30750389 -5.9237748 5.30750389 -3.8125 3.5625 C-3.214375 3.046875 -2.61625 2.53125 -2 2 C-1.34 2 -0.68 2 0 2 C0 1.34 0 0.68 0 0 Z " fill="#F8913F" transform="translate(177,127)"/>
<path d="M0 0 C2.97 1.65 5.94 3.3 9 5 C9 6.32 9 7.64 9 9 C9.99 9.33 10.98 9.66 12 10 C11 11 11 11 8.375 11.25 C4.27651945 10.94640885 1.68729358 9.76990092 -2 8 C-1.2265625 7.4121875 -1.2265625 7.4121875 -0.4375 6.8125 C0.036875 6.214375 0.51125 5.61625 1 5 C0.67 3.35 0.34 1.7 0 0 Z " fill="#9D58ED" transform="translate(75,88)"/>
<path d="M0 0 C1.28132812 0.00902344 2.56265625 0.01804687 3.8828125 0.02734375 C4.87023437 0.03894531 5.85765625 0.05054687 6.875 0.0625 C6.545 1.3825 6.215 2.7025 5.875 4.0625 C-0.065 4.0625 -6.005 4.0625 -12.125 4.0625 C-7.81031419 -0.25218581 -5.99960705 -0.05454188 0 0 Z " fill="#3CB6F2" transform="translate(169.125,96.9375)"/>
<path d="M0 0 C5.65611463 -0.56561146 9.22642128 1.28608722 14 4 C12.515 6.475 12.515 6.475 11 9 C9.68 8.34 8.36 7.68 7 7 C7.33 6.34 7.66 5.68 8 5 C6.02 5.33 4.04 5.66 2 6 C2 5.34 2 4.68 2 4 C1.34 4 0.68 4 0 4 C0 2.68 0 1.36 0 0 Z " fill="#F58F3C" transform="translate(164,109)"/>
<path d="M0 0 C2.31 0 4.62 0 7 0 C6.67 1.98 6.34 3.96 6 6 C3.89590361 6.02701408 1.79170822 6.04640223 -0.3125 6.0625 C-1.48425781 6.07410156 -2.65601563 6.08570312 -3.86328125 6.09765625 C-7 6 -7 6 -10 5 C-10.33 4.01 -10.66 3.02 -11 2 C-7.37 2.33 -3.74 2.66 0 3 C0 2.01 0 1.02 0 0 Z " fill="#9660F1" transform="translate(135,98)"/>
<path d="M0 0 C1.80411967 2.75924185 2.0127245 3.88972103 1.625 7.25 C1.41875 8.1575 1.2125 9.065 1 10 C-0.32 9.67 -1.64 9.34 -3 9 C-3 10.32 -3 11.64 -3 13 C-4.98 13 -6.96 13 -9 13 C-8.34 11.02 -7.68 9.04 -7 7 C-6.34 7 -5.68 7 -5 7 C-5 6.34 -5 5.68 -5 5 C-4.01 5 -3.02 5 -2 5 C-1.855625 4.360625 -1.71125 3.72125 -1.5625 3.0625 C-1 1 -1 1 0 0 Z " fill="#A555F8" transform="translate(149,90)"/>
<path d="M0 0 C2.475 1.485 2.475 1.485 5 3 C3 6 3 6 1 6.625 C0.34 6.74875 -0.32 6.8725 -1 7 C-1.99 7.495 -1.99 7.495 -3 8 C-3.33 7.34 -3.66 6.68 -4 6 C-6.52733235 5.34444881 -6.52733235 5.34444881 -9 5 C-8.67 6.32 -8.34 7.64 -8 9 C-10.31 9 -12.62 9 -15 9 C-14 6 -14 6 -12.36328125 4.83203125 C-8.06030271 2.69283621 -4.92614603 1.5073854 0 2 C0 1.34 0 0.68 0 0 Z " fill="#4393D2" transform="translate(136,58)"/>
<path d="M0 0 C0.66 0 1.32 0 2 0 C2 0.66 2 1.32 2 2 C-1.75738897 5.10214948 -5.99584804 7.13209991 -10.625 8.5625 C-14.65266824 9.83292568 -17.8734119 11.03374975 -21 14 C-21.50805296 16.84618919 -21.29217312 19.07826878 -21 22 C-21.66 22 -22.32 22 -23 22 C-24.45676979 15.80872838 -24.45676979 15.80872838 -22.62109375 12.55859375 C-18.98086344 9.00516476 -14.92967234 7.28608045 -10.3125 5.25 C-8.57874473 4.46504706 -6.84563521 3.67866574 -5.11328125 2.890625 C-4.34798096 2.55063477 -3.58268066 2.21064453 -2.79418945 1.86035156 C-1.02196995 1.13258772 -1.02196995 1.13258772 0 0 Z " fill="#CC8658" transform="translate(59,121)"/>
<path d="M0 0 C0.66 0.33 1.32 0.66 2 1 C2 8.26 2 15.52 2 23 C1.34 23 0.68 23 0 23 C-0.433125 22.54625 -0.86625 22.0925 -1.3125 21.625 C-3.35628817 19.65690769 -5.34530324 18.93273129 -8 18 C-4.90645403 17.00564594 -3.09720845 17.12159004 0 18 C-0.09539062 17.43152344 -0.19078125 16.86304687 -0.2890625 16.27734375 C-1.06536358 10.87031645 -0.85887901 7.13925372 1 2 C0.34 1.67 -0.32 1.34 -1 1 C-0.67 0.67 -0.34 0.34 0 0 Z " fill="#A68968" transform="translate(82,109)"/>
<path d="M0 0 C0.33 1.32 0.66 2.64 1 4 C0.2575 3.979375 -0.485 3.95875 -1.25 3.9375 C-3.70462279 3.99328688 -5.66109261 4.3069904 -8 5 C-7.01 5.33 -6.02 5.66 -5 6 C-5 7.32 -5 8.64 -5 10 C-2.03 10.495 -2.03 10.495 1 11 C-2.32604951 12.10868317 -5.53058454 12.54177532 -9 13 C-8.67 11.68 -8.34 10.36 -8 9 C-8.928125 8.7834375 -8.928125 8.7834375 -9.875 8.5625 C-12 8 -12 8 -14 7 C-3.86206897 0 -3.86206897 0 0 0 Z " fill="#D38343" transform="translate(75,114)"/>
<path d="M0 0 C1.65 0.99 3.3 1.98 5 3 C4.01 3.495 4.01 3.495 3 4 C3.14657084 5.96614267 3.14657084 5.96614267 4 8 C6.08034294 9.1375213 6.08034294 9.1375213 8.5625 9.75 C9.38878906 9.99234375 10.21507813 10.2346875 11.06640625 10.484375 C11.70449219 10.65453125 12.34257813 10.8246875 13 11 C13 11.33 13 11.66 13 12 C5.34167083 11.70544888 -0.34261178 8.62827658 -7 5 C-5.68 4.34 -4.36 3.68 -3 3 C-2.67 3.66 -2.34 4.32 -2 5 C-1.34 5 -0.68 5 0 5 C0 3.35 0 1.7 0 0 Z " fill="#995AE1" transform="translate(48,55)"/>
<path d="M0 0 C-0.1875 2.375 -0.1875 2.375 -1 5 C-3.4375 6.1875 -3.4375 6.1875 -6 7 C-6.66 7.66 -7.32 8.32 -8 9 C-9.98821313 9.39764263 -11.98944339 9.73775349 -14 10 C-14.33 9.34 -14.66 8.68 -15 8 C-12.83956057 5.83956057 -11.90961761 5.5455533 -9 5 C-8.34 5 -7.68 5 -7 5 C-7 3.68 -7 2.36 -7 1 C-3.375 -1.125 -3.375 -1.125 0 0 Z " fill="#F7923C" transform="translate(162,136)"/>
<path d="M0 0 C0.33 0.66 0.66 1.32 1 2 C0.67 2.66 0.34 3.32 0 4 C-2.29296875 4.37890625 -2.29296875 4.37890625 -5.1875 4.5625 C-8.40155326 4.78790114 -11.39201177 5.07565139 -14.5625 5.6875 C-15.366875 5.790625 -16.17125 5.89375 -17 6 C-17.66 5.34 -18.32 4.68 -19 4 C-17.33512588 3.52432168 -15.6700446 3.04935605 -14.00390625 2.578125 C-12.12041615 2.03473994 -10.2472186 1.45603336 -8.375 0.875 C-5.38539118 0.09991623 -3.05911544 -0.18540094 0 0 Z " fill="#A954F4" transform="translate(130,81)"/>
<path d="M0 0 C0 2.31 0 4.62 0 7 C-6.70212766 5.06382979 -6.70212766 5.06382979 -9 2 C-9 1.34 -9 0.68 -9 0 C-5.93109813 -1.53445094 -3.29905734 -0.54984289 0 0 Z " fill="#BC734A" transform="translate(130,88)"/>
<path d="M0 0 C3.63 0 7.26 0 11 0 C11 0.99 11 1.98 11 3 C8.03 3 5.06 3 2 3 C4.65654657 6.73884332 6.58110387 8.64978174 11 10 C9.4375 10.75 9.4375 10.75 7 11 C4.49713591 9.86915563 2.32992278 8.47860484 0 7 C0 4.69 0 2.38 0 0 Z " fill="#A85FAE" transform="translate(119,85)"/>
<path d="M0 0 C1.9375 2 1.9375 2 3 4 C1.73760288 4.86658615 0.46472499 5.71792059 -0.8125 6.5625 C-1.87404297 7.27599609 -1.87404297 7.27599609 -2.95703125 8.00390625 C-5 9 -5 9 -8 8 C-7.67 7.34 -7.34 6.68 -7 6 C-6.34 5.855625 -5.68 5.71125 -5 5.5625 C-4.01 5.2840625 -4.01 5.2840625 -3 5 C-2.67 4.01 -2.34 3.02 -2 2 C-4.31 2.33 -6.62 2.66 -9 3 C-9 2.34 -9 1.68 -9 1 C-5.9167365 -0.54163175 -3.39121901 -0.29747535 0 0 Z " fill="#9A59D7" transform="translate(163,39)"/>
<path d="M0 0 C1.04449911 3.13349732 0.93423645 3.98968256 0 7 C0.66 7.33 1.32 7.66 2 8 C2 9.32 2 10.64 2 12 C3.65 12 5.3 12 7 12 C7 12.66 7 13.32 7 14 C1.97734643 12.81819916 -1.0949151 11.55007718 -5 8 C-4.34 8 -3.68 8 -3 8 C-3.061875 7.05125 -3.12375 6.1025 -3.1875 5.125 C-3.125625 4.09375 -3.06375 3.0625 -3 2 C-2.01 1.34 -1.02 0.68 0 0 Z " fill="#409CDB" transform="translate(86,83)"/>
<path d="M0 0 C0.66 0.33 1.32 0.66 2 1 C-1.00617269 4.00617269 -3.82381598 3.59585316 -8 4 C-8.185625 4.763125 -8.37125 5.52625 -8.5625 6.3125 C-10.60523184 10.1315204 -12.97910882 10.63698604 -17 12 C-19.9375 12.6875 -19.9375 12.6875 -22 13 C-22 12.34 -22 11.68 -22 11 C-20.02 10.67 -18.04 10.34 -16 10 C-15.67 9.01 -15.34 8.02 -15 7 C-13.33333333 6.33333333 -11.66666667 5.66666667 -10 5 C-9.67 4.01 -9.34 3.02 -9 2 C-6.94921875 1.77213542 -4.8984375 1.54427083 -2.84765625 1.31640625 C-0.98859771 1.18113386 -0.98859771 1.18113386 0 0 Z " fill="#7470DE" transform="translate(105,64)"/>
<path d="M0 0 C0.92039063 0.04189453 1.84078125 0.08378906 2.7890625 0.12695312 C3.72492188 0.14951172 4.66078125 0.17207031 5.625 0.1953125 C7.93131924 0.25414717 10.23437088 0.33628167 12.5390625 0.43945312 C12.5390625 0.76945312 12.5390625 1.09945312 12.5390625 1.43945312 C11.65863281 1.47683594 10.77820313 1.51421875 9.87109375 1.55273438 C8.70964844 1.61847656 7.54820312 1.68421875 6.3515625 1.75195312 C5.20300781 1.80996094 4.05445313 1.86796875 2.87109375 1.92773438 C-0.64063776 2.4670507 -2.5134377 3.54174777 -5.4609375 5.43945312 C-8.7734375 5.62695312 -8.7734375 5.62695312 -11.4609375 5.43945312 C-8.49070905 0.01963972 -5.69951535 -0.10325209 0 0 Z " fill="#48A7E1" transform="translate(162.4609375,95.560546875)"/>
<path d="M0 0 C2.64 0 5.28 0 8 0 C7.41636702 3.62338806 5.98826783 5.41616598 3.5 8.0625 C1.21172538 10.5055145 0.07316243 11.78051271 -1 15 C-1.99 15 -2.98 15 -4 15 C-4 15.66 -4 16.32 -4 17 C-4.66 17 -5.32 17 -6 17 C-6 15.68 -6 14.36 -6 13 C-5.01 12.67 -4.02 12.34 -3 12 C-1.181908 10.24360625 -1.181908 10.24360625 0.5625 8.125 C1.16191406 7.42632812 1.76132813 6.72765625 2.37890625 6.0078125 C4.13892666 3.89030551 4.13892666 3.89030551 6 1 C5.38125 1.20625 4.7625 1.4125 4.125 1.625 C3.42375 1.74875 2.7225 1.8725 2 2 C1.34 1.34 0.68 0.68 0 0 Z " fill="#895AC9" transform="translate(148,80)"/>
<path d="M0 0 C0.99 0.33 1.98 0.66 3 1 C2.01 1.495 2.01 1.495 1 2 C1.33 3.65 1.66 5.3 2 7 C2.99 7.33 3.98 7.66 5 8 C5 9.65 5 11.3 5 13 C3.35 13 1.7 13 0 13 C-0.12375 12.278125 -0.2475 11.55625 -0.375 10.8125 C-0.9904931 8.04278106 -1.88444374 5.6029646 -3 3 C-2.01 2.01 -1.02 1.02 0 0 Z " fill="#925ED1" transform="translate(109,83)"/>
<path d="M0 0 C-2 3 -2 3 -4.171875 3.6953125 C-5.44804687 3.90800781 -5.44804687 3.90800781 -6.75 4.125 C-7.64460938 4.27710937 -8.53921875 4.42921875 -9.4609375 4.5859375 C-10.29882812 4.72257812 -11.13671875 4.85921875 -12 5 C-13.11375 5.2475 -14.2275 5.495 -15.375 5.75 C-18.36286054 6.03455815 -19.43643 5.41814511 -22 4 C-19.64856824 3.32210976 -17.29461376 2.65759253 -14.9375 2 C-13.95233398 1.71382813 -13.95233398 1.71382813 -12.94726562 1.421875 C-8.5325982 0.20403571 -4.62058323 -0.19227394 0 0 Z " fill="#8F61DB" transform="translate(135,78)"/>
<path d="M0 0 C1.65 0 3.3 0 5 0 C1.594587 2.75838453 -2.10972971 4.77231029 -6 6.75 C-6.61617187 7.07871094 -7.23234375 7.40742188 -7.8671875 7.74609375 C-12.43437405 10.06889034 -12.43437405 10.06889034 -15.4375 9.703125 C-16.2109375 9.35507813 -16.2109375 9.35507813 -17 9 C-17 8.34 -17 7.68 -17 7 C-15.02 7 -13.04 7 -11 7 C-10.67 6.34 -10.34 5.68 -10 5 C-6.9375 4.375 -6.9375 4.375 -4 4 C-4 3.34 -4 2.68 -4 2 C-2.68 2 -1.36 2 0 2 C0 1.34 0 0.68 0 0 Z " fill="#DD8F50" transform="translate(149,145)"/>
<path d="M0 0 C0 4.29 0 8.58 0 13 C-0.33 13 -0.66 13 -1 13 C-1 11.02 -1 9.04 -1 7 C-2.32 7 -3.64 7 -5 7 C-4.67 5.35 -4.34 3.7 -4 2 C-5.32 1.67 -6.64 1.34 -8 1 C-4.59449725 -1.06762667 -4.18836538 -1.04709135 0 0 Z " fill="#379AD5" transform="translate(95,81)"/>
<path d="M0 0 C2.31 0.33 4.62 0.66 7 1 C7 1.66 7 2.32 7 3 C9.97 3.33 12.94 3.66 16 4 C15.01 4.495 15.01 4.495 14 5 C13.67 5.66 13.34 6.32 13 7 C10.36 7 7.72 7 5 7 C4.731875 6.401875 4.46375 5.80375 4.1875 5.1875 C3.01506533 3.02775192 1.80630718 1.64209744 0 0 Z " fill="#A854F6" transform="translate(111,37)"/>
<path d="M0 0 C2.92879371 0.62759865 5.36095629 1.58622659 8 3 C7.625 4.9375 7.625 4.9375 7 7 C3.98675805 8.50662097 1.31713623 8.17770373 -2 8 C-2.66 7.34 -3.32 6.68 -4 6 C-1.03 6.495 -1.03 6.495 2 7 C2 5.02 2 3.04 2 1 C1.34 0.67 0.68 0.34 0 0 Z " fill="#EA9250" transform="translate(196,122)"/>
<path d="M0 0 C0.33 0.66 0.66 1.32 1 2 C2.98 2 4.96 2 7 2 C7 3.32 7 4.64 7 6 C5.35 6 3.7 6 2 6 C2 6.66 2 7.32 2 8 C0.02 8.33 -1.96 8.66 -4 9 C-3.67 8.01 -3.34 7.02 -3 6 C-2.34 5.67 -1.68 5.34 -1 5 C-0.34444881 2.47266765 -0.34444881 2.47266765 0 0 Z " fill="#A854F6" transform="translate(82,75)"/>
<path d="M0 0 C0.66 0.99 1.32 1.98 2 3 C1.34 3 0.68 3 0 3 C-0.33 4.32 -0.66 5.64 -1 7 C-4.65456815 7.75241109 -8.31733897 8.40049704 -12 9 C-12 8.34 -12 7.68 -12 7 C-11.21753906 6.66226563 -10.43507812 6.32453125 -9.62890625 5.9765625 C-8.61699219 5.53054687 -7.60507813 5.08453125 -6.5625 4.625 C-5.55316406 4.18414062 -4.54382813 3.74328125 -3.50390625 3.2890625 C-0.87856453 2.24923714 -0.87856453 2.24923714 0 0 Z " fill="#A754F3" transform="translate(73,38)"/>
<path d="M0 0 C-0.99 0.33 -1.98 0.66 -3 1 C-2.67 2.65 -2.34 4.3 -2 6 C-2.99 6.495 -2.99 6.495 -4 7 C-4 6.34 -4 5.68 -4 5 C-4.61875 4.9175 -5.2375 4.835 -5.875 4.75 C-8 4 -8 4 -9.25 1.9375 C-9.62125 0.9784375 -9.62125 0.9784375 -10 0 C-6.22996568 -2.61002376 -4.07631429 -1.66758312 0 0 Z " fill="#A156EC" transform="translate(97,29)"/>
<path d="M0 0 C1.32 0 2.64 0 4 0 C4.226875 0.61875 4.45375 1.2375 4.6875 1.875 C6.37929835 4.61410209 7.99244161 5.05024472 11 6 C11 6.66 11 7.32 11 8 C7.5980513 10.09350689 4.94727588 10.17942163 1 10 C4 8 4 8 6 7 C5.01 6.21625 4.02 5.4325 3 4.625 C2.01 3.75875 1.02 2.8925 0 2 C0 1.34 0 0.68 0 0 Z M12 4 C14 5 14 5 14 5 Z " fill="#9D54E0" transform="translate(157,63)"/>
<path d="M0 0 C1.65 0.33 3.3 0.66 5 1 C4.360625 1.556875 3.72125 2.11375 3.0625 2.6875 C0.80319013 5.22066561 0.36850953 6.68341424 0 10 C-1.65 9.67 -3.3 9.34 -5 9 C-4.34 8.67 -3.68 8.34 -3 8 C-3.33 6.68 -3.66 5.36 -4 4 C-3.01 3.67 -2.02 3.34 -1 3 C-0.67 2.01 -0.34 1.02 0 0 Z " fill="#A954FA" transform="translate(75,57)"/>
<path d="M0 0 C3.34373475 0.55728913 6.03312999 1.35173889 9 3 C8.67 4.65 8.34 6.3 8 8 C6.68 8 5.36 8 4 8 C4 7.01 4 6.02 4 5 C3.34 5 2.68 5 2 5 C1.34 3.35 0.68 1.7 0 0 Z " fill="#F68E3B" transform="translate(49,143)"/>
<path d="M0 0 C1.65 0 3.3 0 5 0 C5 0.66 5 1.32 5 2 C6.98 2 8.96 2 11 2 C11.33 2.99 11.66 3.98 12 5 C3.42857143 5.28571429 3.42857143 5.28571429 0 3 C0 2.01 0 1.02 0 0 Z " fill="#F8923C" transform="translate(87,163)"/>
<path d="M0 0 C0.99 0.66 1.98 1.32 3 2 C0.71969913 5.60047505 -1.11497069 6.46405818 -5 8 C-7.1082108 9.56624151 -9.02877911 11.25799084 -11 13 C-9.56951306 9.81716656 -7.80982757 7.42084342 -5.5 4.8125 C-4.58734375 3.77029297 -4.58734375 3.77029297 -3.65625 2.70703125 C-2 1 -2 1 0 0 Z " fill="#9456D5" transform="translate(84,44)"/>
<path d="M0 0 C-6.63633664 2.92779558 -12.86559643 3.14268807 -20 3 C-20.33 2.34 -20.66 1.68 -21 1 C-20.02417969 0.93941406 -19.04835938 0.87882813 -18.04296875 0.81640625 C-16.77066406 0.73261719 -15.49835938 0.64882812 -14.1875 0.5625 C-12.92292969 0.48128906 -11.65835938 0.40007812 -10.35546875 0.31640625 C-1.63125 -0.50625 -1.63125 -0.50625 0 0 Z " fill="#D68F50" transform="translate(112,167)"/>
<path d="M0 0 C1.75406653 0.39920135 3.50318982 0.82015666 5.25 1.25 C6.22453125 1.48203125 7.1990625 1.7140625 8.203125 1.953125 C11.31523411 3.11799266 12.84212456 4.51330545 15 7 C14.29875 6.79503906 13.5975 6.59007813 12.875 6.37890625 C7.23146391 4.77632603 1.84123457 3.55105987 -4 3 C-2.68 2.67 -1.36 2.34 0 2 C0 1.34 0 0.68 0 0 Z " fill="#6E65C1" transform="translate(66,93)"/>
<path d="M0 0 C1.32 0.33 2.64 0.66 4 1 C4 1.99 4 2.98 4 4 C2.68 4.33 1.36 4.66 0 5 C0 5.66 0 6.32 0 7 C-1.32 7.33 -2.64 7.66 -4 8 C-4.33 6.35 -4.66 4.7 -5 3 C-3.35 3 -1.7 3 0 3 C0 2.01 0 1.02 0 0 Z " fill="#A855F6" transform="translate(113,62)"/>
<path d="M0 0 C-3.8469062 1.84330922 -7.05378639 3.14207855 -11.3125 3.5625 C-15.03049731 3.61791582 -15.03049731 3.61791582 -17 6 C-17.66 5.01 -18.32 4.02 -19 3 C-16.586238 2.30048937 -14.16989766 1.61516081 -11.75 0.9375 C-11.06808594 0.73833984 -10.38617188 0.53917969 -9.68359375 0.33398438 C-3.41657839 -1.40009269 -3.41657839 -1.40009269 0 0 Z " fill="#9B59D9" transform="translate(93,36)"/>
<path d="M0 0 C-0.33 1.32 -0.66 2.64 -1 4 C-2.32 4 -3.64 4 -5 4 C-5.33 4.66 -5.66 5.32 -6 6 C-7.32 5.34 -8.64 4.68 -10 4 C-10 3.34 -10 2.68 -10 2 C-6.5980513 -0.09350689 -3.94727588 -0.17942163 0 0 Z " fill="#ED9048" transform="translate(177,127)"/>
<path d="M0 0 C-0.33 1.98 -0.66 3.96 -1 6 C-4.62326739 7.2077558 -5.64146369 6.54311128 -9 5 C-6.41680366 1.12520549 -4.65792984 0 0 0 Z " fill="#E58535" transform="translate(62,123)"/>
<path d="M0 0 C6.81598387 -0.33278764 11.92122066 -0.24201565 18 3 C16.25 3.625 16.25 3.625 14 4 C13.3915625 3.690625 12.783125 3.38125 12.15625 3.0625 C9.76298733 1.88321115 7.89602604 1.60847289 5.25 1.375 C4.45078125 1.30023438 3.6515625 1.22546875 2.828125 1.1484375 C1.92320312 1.07496094 1.92320312 1.07496094 1 1 C1.33 2.32 1.66 3.64 2 5 C0.68 4.67 -0.64 4.34 -2 4 C-1.34 2.68 -0.68 1.36 0 0 Z " fill="#AF8065" transform="translate(148,102)"/>
<path d="M0 0 C0.66 0.66 1.32 1.32 2 2 C1.625 4.125 1.625 4.125 1 6 C-3.87362847 5.54663921 -6.39042389 4.2910841 -10 1 C-7.03 1.33 -4.06 1.66 -1 2 C-0.67 1.34 -0.34 0.68 0 0 Z " fill="#A259ED" transform="translate(67,87)"/>
<path d="M0 0 C0.19622241 4.21878192 -0.19769832 7.17010894 -2 11 C-2.33 11 -2.66 11 -3 11 C-3 8.69 -3 6.38 -3 4 C-4.65 3.67 -6.3 3.34 -8 3 C-4.93882432 0.37613513 -4.26826873 0 0 0 Z " fill="#C48144" transform="translate(83,111)"/>
<path d="M0 0 C0 0.66 0 1.32 0 2 C-0.66 2 -1.32 2 -2 2 C-2.25523438 2.59296875 -2.51046875 3.1859375 -2.7734375 3.796875 C-4.11816498 6.21224538 -5.49214367 7.51211706 -7.625 9.25 C-8.25664063 9.77078125 -8.88828125 10.2915625 -9.5390625 10.828125 C-10.02117187 11.21484375 -10.50328125 11.6015625 -11 12 C-10.20793236 8.15967207 -8.90981185 6.6603994 -6 4 C-5.29875 3.2575 -4.5975 2.515 -3.875 1.75 C-2 0 -2 0 0 0 Z " fill="#8F57CF" transform="translate(98,43)"/>
<path d="M0 0 C2.4375 0.75 2.4375 0.75 5 2 C5.8125 4.125 5.8125 4.125 6 6 C4.02 6 2.04 6 0 6 C-0.38218767 4.34385343 -0.71395102 2.67542976 -1 1 C-0.67 0.67 -0.34 0.34 0 0 Z " fill="#A257F3" transform="translate(88,97)"/>
<path d="M0 0 C2.31 0 4.62 0 7 0 C3.53252172 2.77398263 -0.06402511 4.95912413 -4 7 C-4.66 6.67 -5.32 6.34 -6 6 C-4.6875 4.5 -4.6875 4.5 -3 3 C-2.01 3 -1.02 3 0 3 C0 2.01 0 1.02 0 0 Z " fill="#9260DE" transform="translate(98,73)"/>
<path d="M0 0 C0.33 0 0.66 0 1 0 C1 2.31 1 4.62 1 7 C2.65 7.33 4.3 7.66 6 8 C5.67 8.99 5.34 9.98 5 11 C3.35 11.33 1.7 11.66 0 12 C0 8.04 0 4.08 0 0 Z " fill="#3C96D5" transform="translate(84,63)"/>
<path d="M0 0 C0 0.66 0 1.32 0 2 C-0.66 2 -1.32 2 -2 2 C-2.33 2.99 -2.66 3.98 -3 5 C-7.62 4.01 -12.24 3.02 -17 2 C-17 1.67 -17 1.34 -17 1 C-16.16855469 1.09539063 -15.33710938 1.19078125 -14.48046875 1.2890625 C-13.39378906 1.39992187 -12.30710938 1.51078125 -11.1875 1.625 C-9.56908203 1.79902344 -9.56908203 1.79902344 -7.91796875 1.9765625 C-4.4942445 2.00406229 -3.23053158 0 0 0 Z " fill="#945ED5" transform="translate(153,41)"/>
<path d="M0 0 C0 0.66 0 1.32 0 2 C-1.65 2 -3.3 2 -5 2 C-5 2.99 -5 3.98 -5 5 C-5.99 5 -6.98 5 -8 5 C-8 3.35 -8 1.7 -8 0 C-4.94736336 -0.98120464 -3.05263664 -0.98120464 0 0 Z " fill="#CB7631" transform="translate(105,105)"/>
<path d="M0 0 C-1.82784718 2.3355825 -2.88300514 2.97140126 -5.8125 3.6875 C-8.90135683 3.9903291 -11.89867055 4.07384118 -15 4 C-11.2354727 0.2354727 -5.16743168 -0.32296448 0 0 Z " fill="#995AD9" transform="translate(58,43)"/>
<path d="M0 0 C1.65 0 3.3 0 5 0 C5.33 1.65 5.66 3.3 6 5 C4.35 5 2.7 5 1 5 C1 4.34 1 3.68 1 3 C0.34 2.67 -0.32 2.34 -1 2 C-0.67 1.34 -0.34 0.68 0 0 Z " fill="#A856F3" transform="translate(182,73)"/>
<path d="M0 0 C-3.25082673 2.16721782 -4.29232153 2.27221018 -8.0625 2.25 C-8.94035156 2.25515625 -9.81820312 2.2603125 -10.72265625 2.265625 C-13 2 -13 2 -15 0 C-9.77254141 -1.2063366 -5.23471686 -0.75612577 0 0 Z " fill="#4CACDD" transform="translate(139,135)"/>
<path d="M0 0 C1.4540625 0.0309375 1.4540625 0.0309375 2.9375 0.0625 C0.9375 3.0625 0.9375 3.0625 -2.0625 4.0625 C-2.3925 6.3725 -2.7225 8.6825 -3.0625 11.0625 C-3.3925 11.0625 -3.7225 11.0625 -4.0625 11.0625 C-4.08938151 9.41675434 -4.10884123 7.77088587 -4.125 6.125 C-4.13660156 5.20847656 -4.14820313 4.29195313 -4.16015625 3.34765625 C-4.00919455 -0.18484756 -3.60673121 0.07360676 0 0 Z " fill="#3EA1D8" transform="translate(135.0625,84.9375)"/>
<path d="M0 0 C0.33 1.32 0.66 2.64 1 4 C0.2575 3.95875 -0.485 3.9175 -1.25 3.875 C-3.97841527 3.80744481 -3.97841527 3.80744481 -6.0625 5.0625 C-8.49909608 6.2414981 -9.47647171 5.75023814 -12 5 C-10.37750059 4.16180842 -8.75191503 3.3295884 -7.125 2.5 C-6.22007813 2.0359375 -5.31515625 1.571875 -4.3828125 1.09375 C-2 0 -2 0 0 0 Z " fill="#C27C48" transform="translate(75,114)"/>
<path d="M0 0 C2.91517292 1.07401108 4.77810176 1.77810176 7 4 C6.625 6.125 6.625 6.125 6 8 C3.69 8 1.38 8 -1 8 C-1 7.67 -1 7.34 -1 7 C0.98 7 2.96 7 5 7 C5 6.34 5 5.68 5 5 C4.34 4.67 3.68 4.34 3 4 C2.01 3.34 1.02 2.68 0 2 C0 1.34 0 0.68 0 0 Z " fill="#856AEC" transform="translate(89,96)"/>
<path d="M0 0 C1.32 0.33 2.64 0.66 4 1 C3.125 4.875 3.125 4.875 2 6 C-3.73611111 6.27314815 -3.73611111 6.27314815 -6 6 C-6.66 5.34 -7.32 4.68 -8 4 C-5.03 4.33 -2.06 4.66 1 5 C0.67 3.35 0.34 1.7 0 0 Z " fill="#8357C8" transform="translate(187,73)"/>
<path d="M0 0 C0.99 0.495 0.99 0.495 2 1 C2.4140625 3.28515625 2.4140625 3.28515625 2.625 6.0625 C2.69976562 6.98160156 2.77453125 7.90070313 2.8515625 8.84765625 C2.92503906 9.91306641 2.92503906 9.91306641 3 11 C2.01 11.33 1.02 11.66 0 12 C0 8.04 0 4.08 0 0 Z " fill="#399ECB" transform="translate(94,116)"/>
<path d="M0 0 C-7.3697851 4.46015566 -7.3697851 4.46015566 -12 3.75 C-12.99 3.5025 -13.98 3.255 -15 3 C-15 2.67 -15 2.34 -15 2 C-12.87707704 1.47076428 -10.75157949 0.95184623 -8.625 0.4375 C-7.44164063 0.14746094 -6.25828125 -0.14257812 -5.0390625 -0.44140625 C-2 -1 -2 -1 0 0 Z " fill="#965DD7" transform="translate(73,40)"/>
<path d="M0 0 C0.66 0.33 1.32 0.66 2 1 C0.6875 3.5 0.6875 3.5 -1 6 C-1.99 6 -2.98 6 -4 6 C-4 6.66 -4 7.32 -4 8 C-4.66 8 -5.32 8 -6 8 C-6 6.68 -6 5.36 -6 4 C-5.01 3.67 -4.02 3.34 -3 3 C-1.33289654 1.50014391 -1.33289654 1.50014391 0 0 Z " fill="#8E60D2" transform="translate(148,89)"/>
<path d="M0 0 C-4.07156479 2.0357824 -6.51124928 3.12165065 -11.125 3.0625 C-12.03507813 3.05347656 -12.94515625 3.04445313 -13.8828125 3.03515625 C-14.58148438 3.02355469 -15.28015625 3.01195313 -16 3 C-12.16061076 -0.83938924 -5.1929061 -0.12982265 0 0 Z " fill="#8964DF" transform="translate(148,81)"/>
<path d="M0 0 C0.33 0.66 0.66 1.32 1 2 C4.465 1.505 4.465 1.505 8 1 C7.67 2.32 7.34 3.64 7 5 C4.69 4.67 2.38 4.34 0 4 C0 2.68 0 1.36 0 0 Z " fill="#AD50F9" transform="translate(153,40)"/>
<path d="M0 0 C0 0.99 0 1.98 0 3 C-0.94875 3.309375 -1.8975 3.61875 -2.875 3.9375 C-5.86080408 4.87394742 -5.86080408 4.87394742 -8 6 C-8 4.68 -8 3.36 -8 2 C-4.91190305 0.23537317 -3.76687864 0 0 0 Z " fill="#9B54E3" transform="translate(107,36)"/>
<path d="M0 0 C1.65 0 3.3 0 5 0 C4.67 0.99 4.34 1.98 4 3 C4.66 3 5.32 3 6 3 C6 3.66 6 4.32 6 5 C3.03 4.505 3.03 4.505 0 4 C0 2.68 0 1.36 0 0 Z " fill="#F68D3A" transform="translate(114,141)"/>
<path d="M0 0 C2.475 0.99 2.475 0.99 5 2 C4.01 2.495 4.01 2.495 3 3 C3 3.66 3 4.32 3 5 C2.01 5.33 1.02 5.66 0 6 C-0.66 5.67 -1.32 5.34 -2 5 C-1.34 3.35 -0.68 1.7 0 0 Z " fill="#F7923F" transform="translate(82,159)"/>
<path d="M0 0 C1.32 0.66 2.64 1.32 4 2 C2.3125 4.0625 2.3125 4.0625 0 6 C-2.75 5.75 -2.75 5.75 -5 5 C-5 4.67 -5 4.34 -5 4 C-3.35 4 -1.7 4 0 4 C0 2.68 0 1.36 0 0 Z " fill="#A05FDA" transform="translate(146,99)"/>
<path d="M0 0 C2.4375 0.6875 2.4375 0.6875 5 2 C5.8125 4.625 5.8125 4.625 6 7 C5.05125 6.360625 4.1025 5.72125 3.125 5.0625 C0.24712173 3.07379437 0.24712173 3.07379437 -2 2 C-1.34 1.34 -0.68 0.68 0 0 Z " fill="#9558D5" transform="translate(145,51)"/>
<path d="M0 0 C2.92879371 0.62759865 5.36095629 1.58622659 8 3 C7.67 4.32 7.34 5.64 7 7 C6.34 7 5.68 7 5 7 C5 5.68 5 4.36 5 3 C2.525 2.01 2.525 2.01 0 1 C0 0.67 0 0.34 0 0 Z " fill="#DB9651" transform="translate(196,122)"/>
<path d="M0 0 C1.64767247 0.28109113 3.29313145 0.57518526 4.9375 0.875 C5.85402344 1.03742188 6.77054688 1.19984375 7.71484375 1.3671875 C8.46894531 1.57601562 9.22304687 1.78484375 10 2 C10.33 2.66 10.66 3.32 11 4 C4.375 4.125 4.375 4.125 1 3 C0.67 2.01 0.34 1.02 0 0 Z " fill="#757BE6" transform="translate(124,100)"/>
<path d="M0 0 C1.65 0 3.3 0 5 0 C1.8745041 2.64465038 -1.08788267 3.84414715 -5 5 C-4.67 4.01 -4.34 3.02 -4 2 C-2.68 2 -1.36 2 0 2 C0 1.34 0 0.68 0 0 Z " fill="#D58A53" transform="translate(129,155)"/>
<path d="M0 0 C0.33 0 0.66 0 1 0 C1 2.97 1 5.94 1 9 C-0.32 8.34 -1.64 7.68 -3 7 C-2.34 7 -1.68 7 -1 7 C-1.020625 6.030625 -1.04125 5.06125 -1.0625 4.0625 C-1 1 -1 1 0 0 Z " fill="#4A82BF" transform="translate(84,84)"/>
<path d="M0 0 C0.66 0.33 1.32 0.66 2 1 C2 2.32 2 3.64 2 5 C-0.31 5 -2.62 5 -5 5 C-4 2 -4 2 -2.0625 0.75 C-1.381875 0.5025 -0.70125 0.255 0 0 Z " fill="#5193D6" transform="translate(126,62)"/>
<path d="M0 0 C0 2 0 2 -2.25 4.6875 C-3.1575 5.450625 -4.065 6.21375 -5 7 C-7.171875 6.64453125 -7.171875 6.64453125 -9 6 C-7.8803014 4.99406757 -6.7540588 3.9954151 -5.625 3 C-4.68527344 2.1646875 -4.68527344 2.1646875 -3.7265625 1.3125 C-2 0 -2 0 0 0 Z " fill="#9B59E3" transform="translate(79,53)"/>
<path d="M0 0 C2.31 0 4.62 0 7 0 C7.33 1.32 7.66 2.64 8 4 C2.25 2.25 2.25 2.25 0 0 Z " fill="#DD8F54" transform="translate(66,158)"/>
<path d="M0 0 C0 0.66 0 1.32 0 2 C0.66 2.33 1.32 2.66 2 3 C2 3.66 2 4.32 2 5 C-3.75 3.25 -3.75 3.25 -6 1 C-3 0 -3 0 0 0 Z " fill="#DC8D52" transform="translate(172,114)"/>
<path d="M0 0 C2.31 0 4.62 0 7 0 C7.33 1.32 7.66 2.64 8 4 C2.25 2.25 2.25 2.25 0 0 Z " fill="#DA8A4C" transform="translate(154,109)"/>
<path d="M0 0 C1.32 0 2.64 0 4 0 C4.28875 0.639375 4.5775 1.27875 4.875 1.9375 C5.82823451 4.15206079 5.82823451 4.15206079 8 5 C7.67 5.66 7.34 6.32 7 7 C5.82780457 6.21654285 4.66236332 5.42297164 3.5 4.625 C2.8503125 4.18414062 2.200625 3.74328125 1.53125 3.2890625 C1.0259375 2.86367187 0.520625 2.43828125 0 2 C0 1.34 0 0.68 0 0 Z " fill="#935AD3" transform="translate(157,63)"/>
<path d="M0 0 C0 0.99 0 1.98 0 3 C-3.37817425 3.84454356 -5.67465243 4.10844919 -9 3 C-2.25 0 -2.25 0 0 0 Z " fill="#9A5DDC" transform="translate(126,55)"/>
<path d="M0 0 C1.65 0 3.3 0 5 0 C4.67 1.32 4.34 2.64 4 4 C2.68 3.67 1.36 3.34 0 3 C0 2.01 0 1.02 0 0 Z " fill="#32B2E5" transform="translate(85,105)"/>
<path d="M0 0 C0.66 0.33 1.32 0.66 2 1 C1.67 2.32 1.34 3.64 1 5 C-0.98 5.33 -2.96 5.66 -5 6 C-4 4 -4 4 -1 3 C-0.67 2.01 -0.34 1.02 0 0 Z " fill="#54A2CA" transform="translate(176,97)"/>
<path d="M0 0 C3.25 -0.25 3.25 -0.25 7 0 C8.32 1.32 9.64 2.64 11 4 C7.37 3.01 3.74 2.02 0 1 C0 0.67 0 0.34 0 0 Z " fill="#6C79E6" transform="translate(70,96)"/>
<path d="M0 0 C3.375 0.25 3.375 0.25 7 1 C8.4375 3.0625 8.4375 3.0625 9 5 C5.54074837 3.7508258 2.85306797 2.32472205 0 0 Z " fill="#8E5AD9" transform="translate(57,88)"/>
</svg>
